<svg width="253" height="88" viewBox="0 0 253 88" fill="none" xmlns="http://www.w3.org/2000/svg">
<path d="M87.08 0H0.012207V87.0826H87.08V0Z" fill="#9747FF"/>
<mask id="mask0_40000052_166" style="mask-type:luminance" maskUnits="userSpaceOnUse" x="0" y="28" width="85" height="33">
<path d="M84.8531 28.4819H0V60.363H84.8531V28.4819Z" fill="white"/>
</mask>
<g mask="url(#mask0_40000052_166)">
<path d="M40.5102 33.0654C40.4859 32.8972 40.3177 32.7754 40.0985 32.7754H29.8071C29.6024 32.7754 29.4806 32.9094 29.4563 33.041C29.4319 33.175 29.4927 33.3432 29.7096 33.4285C29.7461 33.4528 29.9995 33.5381 30.918 33.8403C31.6319 34.0815 32.4408 34.3593 32.587 34.4203C32.7916 34.4934 32.9744 34.625 32.8526 35.1099C32.816 35.2561 28.6693 52.3821 28.5718 52.7331C28.45 53.0961 28.0041 53.2643 27.7727 53.3617C27.6996 53.3983 27.3122 53.5299 26.8663 53.7005C25.9599 54.027 25.3192 54.2683 25.2095 54.317C25.1852 54.317 25.1973 54.3414 25.173 54.3535C25.1608 54.3535 25.1608 54.3292 25.1365 54.317C24.8831 54.2195 23.0071 53.4105 22.5246 53.179C22.1373 52.9865 22.1007 52.7306 22.0763 52.4041C22.0763 52.3553 22.0763 51.6779 22.1007 50.6252C22.3419 32.4221 22.3053 32.3392 22.2591 32.2539C22.1494 32.0127 21.7986 31.9518 21.5696 32.1686C21.4721 32.2661 19.8275 34.0426 16.7089 37.4419C11.3634 43.2465 2.42661 52.9475 2.02947 53.2862C1.66644 53.5762 1.01348 53.8905 0.107134 54.2293C0.0462241 54.2536 0.00971949 54.2658 -0.0024626 54.278L-0.0390445 54.3024L-0.255859 54.3389V54.5558L-0.194964 55.0407L0.131522 54.9676H10.1086C10.3133 54.9676 10.4838 54.8336 10.496 54.6533C10.5204 54.4851 10.3985 54.3389 10.2182 54.3024C9.38499 54.1342 6.26401 53.4787 5.73287 53.3228C5.54039 53.2618 5.44288 53.1887 5.4307 53.1424C5.4307 53.1059 5.43069 53.045 5.50379 52.9621C5.75717 52.5868 10.7153 46.4801 11.0905 46.178C11.4901 45.8636 11.6217 45.8271 12.4086 45.8149C12.6742 45.8027 14.1507 45.7662 15.6125 45.8149C16.7138 45.8393 17.7761 45.9245 18.3218 45.9733C18.7457 46.0098 18.7579 46.2023 18.7579 46.5411V46.6264C18.7579 46.7482 18.7092 47.835 18.6605 48.973C18.5996 50.3401 18.5264 51.8631 18.5142 52.2871C18.5021 52.9767 18.429 53.0011 18.0295 53.1449C17.9929 53.1449 14.3529 54.317 14.2335 54.3901L13.9923 54.4876V54.6923C13.9923 54.7654 14.0411 54.9213 14.3553 54.9944H24.9489C25.0463 54.9944 25.1292 54.9701 25.2023 54.9213C25.2632 54.9579 25.3241 54.9944 25.4435 54.9944H35.2622C35.54 54.9944 35.6739 54.836 35.6983 54.7044C35.7227 54.5729 35.6617 54.3901 35.4327 54.3048C35.3474 54.2561 34.9601 54.1245 34.1146 53.8199C33.4495 53.5786 32.7356 53.3252 32.4944 53.2277C32.2776 53.1424 32.2288 53.0596 32.3263 52.6478C32.3507 52.5381 36.3293 35.6679 36.4731 35.2074C36.5949 34.8565 36.7265 34.6396 37.1626 34.4446C37.3795 34.3472 37.7668 34.2156 38.0324 34.1303L38.2614 34.0572C38.4539 33.9963 40.1229 33.5138 40.2934 33.4772C40.5103 33.4041 40.559 33.236 40.5468 33.1263L40.5102 33.0654ZM18.9114 37.71C18.9114 38.0731 18.8748 40.0567 18.8505 41.7015C18.8261 42.8614 18.814 43.8654 18.814 43.9873C18.814 44.2285 18.814 44.4113 18.1732 44.4113H13.0348C12.7326 44.4113 12.6352 44.326 12.623 44.3138C12.623 44.3016 12.623 44.2041 12.757 44.0847C12.9032 43.9044 14.7768 41.8965 16.2752 40.276C17.6908 38.753 18.5606 37.8075 18.6458 37.7124C18.7555 37.5784 18.8383 37.5321 18.887 37.5077C18.887 37.5443 18.9114 37.6028 18.9114 37.71Z" fill="white"/>
<path d="M59.229 47.338C59.0122 47.0602 58.6248 47.0237 58.3227 47.0237H50.2216C49.9925 47.0237 49.8098 47.1577 49.7855 47.338C49.7855 47.3868 49.7733 47.6402 50.112 47.7133C50.1972 47.7377 50.9233 47.9302 51.7931 48.1617C53.099 48.5126 54.7314 48.961 55.0213 49.0316C55.0578 49.0316 55.1066 49.0682 55.131 49.0926C55.1675 49.1535 55.1187 49.3216 55.0944 49.3947L55.0701 49.48C55.0457 49.6262 54.2709 52.855 54.1881 53.0963C54.0906 53.3375 54.0663 53.3862 53.7154 53.4959C53.462 53.5812 52.446 53.8103 50.9574 53.7615C46.7375 53.6519 43.6652 51.0761 43.1462 47.1943C42.5054 42.6106 45.7702 37.252 50.5822 35.015C52.5045 34.1207 54.7898 33.9866 55.9886 33.9866C57.3188 33.9866 58.2618 34.145 58.5639 34.2401C58.9878 34.3741 59.0121 34.5057 59.0121 35.11C59.0121 35.3025 58.9025 38.0245 58.8318 39.4768C58.7953 40.2152 58.7709 40.7586 58.7709 40.8073C58.7709 40.917 58.7953 41.012 58.844 41.0973C59.0121 41.3629 59.4361 41.2655 59.5579 40.917C59.631 40.7367 61.6751 34.5788 61.6995 34.5179C61.7604 34.2888 61.8579 33.9379 61.6752 33.6114C61.529 33.3579 61.2634 33.1874 60.8419 33.0801C58.883 32.5733 56.2224 32.4636 55.3648 32.4636C49.4638 32.4636 45.2927 35.4877 44.5179 36.0921C42.0279 38.0513 40.164 40.7976 39.4136 43.6511C38.6388 46.529 39.1237 49.3972 40.7682 51.5367C42.0254 53.1816 44.5544 55.153 49.3907 55.153H49.8756C53.3938 55.0555 56.9851 53.6299 57.0094 53.6178C57.4212 53.4715 57.6746 53.2547 57.7842 52.9525C57.8938 52.6747 59.1023 48.8391 59.3313 48.091C59.4166 47.7889 59.3801 47.5476 59.2461 47.3527L59.2339 47.3405L59.229 47.338Z" fill="white"/>
<path d="M83.1353 54.317C82.8819 54.2195 81.0059 53.4105 80.5235 53.179C80.1118 52.9865 80.0874 52.7062 80.0752 52.3919C80.0752 52.2457 80.0996 49.7674 80.1361 46.8773C80.3286 32.4001 80.2945 32.3392 80.2457 32.2417C80.1361 32.0005 79.7853 31.9395 79.5563 32.1564C79.4588 32.2539 77.997 33.85 75.178 36.8985C70.0274 42.4983 60.4255 52.9231 59.9772 53.2862C59.4461 53.698 58.4788 54.0977 58.1158 54.2414C58.0184 54.278 57.9575 54.3023 57.9575 54.3023C57.8113 54.3755 57.7284 54.5436 57.7649 54.6898C57.8015 54.8482 57.9331 54.9432 58.1036 54.9432H68.0808C68.3098 54.9432 68.4438 54.7848 68.4681 54.6289C68.4925 54.4607 68.3828 54.3145 68.2025 54.2658C67.2962 54.0855 64.2239 53.4421 63.7171 53.2862C63.5246 53.2253 63.4272 53.1522 63.415 53.1059C63.3906 53.0449 63.4393 52.9597 63.4637 52.9377C63.7049 52.599 68.6996 46.4436 69.0504 46.1414C69.4743 45.827 69.606 45.7905 70.3929 45.7783C70.6585 45.7661 72.1471 45.7296 73.5967 45.7783C74.7687 45.8027 75.8943 45.9002 76.306 45.9367C76.73 45.9733 76.7422 46.1658 76.7422 46.5045V46.5898C76.7422 46.7116 76.6934 47.7863 76.6447 48.9365C76.5838 50.3035 76.5107 51.8265 76.4985 52.2505C76.4742 52.9402 76.4133 52.9645 76.0137 53.1083C75.9771 53.1083 72.3372 54.2682 72.2178 54.3535L71.9766 54.4388V54.6435C71.9766 54.7166 72.0253 54.8726 72.3396 54.9457H82.9331C83.1499 54.9457 83.3205 54.836 83.3571 54.6679C83.3936 54.5217 83.3084 54.3779 83.1524 54.3048L83.1402 54.317H83.1353ZM76.8957 37.71C76.8957 38.0731 76.8713 40.0566 76.847 41.7137C76.8348 42.8736 76.8104 43.8776 76.8104 43.9994C76.8104 44.2163 76.8104 44.4234 76.1575 44.4234H70.9947C70.6926 44.4234 70.5951 44.3381 70.5829 44.326C70.5829 44.3138 70.5829 44.2285 70.7048 44.0969C70.8509 43.9288 72.3615 42.3058 73.8136 40.7341C75.2657 39.1745 76.5108 37.8318 76.6082 37.7222C76.73 37.5881 76.8129 37.5418 76.8494 37.5175C76.8494 37.554 76.8737 37.6149 76.8737 37.7222L76.8981 37.71H76.8957Z" fill="white"/>
</g>
<path d="M102.266 24.8896H109.412L125.013 52.2358L140.564 24.8896H147.71V61.9246H140.308V40.3952L128.034 61.9246H121.95L109.675 40.3952V61.9246H102.273V24.8896H102.261H102.266Z" fill="black"/>
<path d="M165.633 34.8328C173.456 34.8328 177.218 38.3759 177.218 45.6206V61.9717H170.24V58.3799C168.547 60.9678 165.633 62.5639 162.09 62.5639C156.854 62.5639 153.153 59.128 153.153 54.2543C153.153 49.6463 156.491 46.4296 161.617 45.9447L168.861 45.316C169.816 45.2063 170.24 44.892 170.24 44.2633V43.8393C170.24 42.1457 168.595 41.1417 165.633 41.1417C162.246 41.1417 159.866 42.4113 159.018 44.5776L153.831 40.8761C155.475 37.0186 159.646 34.8401 165.62 34.8401L165.633 34.8279V34.8328ZM163.674 50.9792C161.605 51.2448 160.397 52.2975 160.397 53.8936C160.397 55.6969 161.825 56.8081 164.159 56.8081C167.652 56.8081 170.242 54.3761 170.242 51.257V50.2043L163.688 51.0036L163.676 50.9792H163.674Z" fill="black"/>
<path d="M182.609 27.9017C182.609 25.3138 184.507 23.4033 187.048 23.4033C189.59 23.4033 191.546 25.3016 191.546 27.9017C191.546 30.5018 189.648 32.3416 187.048 32.3416C184.449 32.3416 182.609 30.4433 182.609 27.9017ZM190.542 61.9248H183.564V35.4729H190.542V61.9248Z" fill="black"/>
<path d="M197.097 35.4732H203.867V39.4891C205.875 36.4162 208.947 34.8323 212.49 34.8323C218.415 34.8323 221.802 38.641 221.802 45.3545V61.9128H214.656V47.2552C214.656 43.4928 212.963 41.5457 209.734 41.5457C206.033 41.5457 204.075 44.2433 204.075 49.2754V61.9152H197.097V35.4634V35.4732Z" fill="black"/>
<path d="M239.941 34.8323C248.029 34.8323 253 40.3834 253 48.9098V50.8081H233.53L233.579 50.9178C234.425 54.4609 237.594 55.9986 240.664 55.9986C243.734 55.9986 246.324 54.885 248.173 53.301L251.087 59.069C248.924 60.8722 245.634 62.5634 240.567 62.5634C231.63 62.5634 226.394 56.5883 226.394 48.7027C226.394 40.8171 231.63 34.842 239.938 34.842V34.8298L239.941 34.8323ZM239.736 40.7586C236.398 40.7586 234.186 42.501 233.496 45.7298H245.396C245.081 42.8763 243.123 40.7586 239.736 40.7586Z" fill="black"/>
</svg>
