<svg width="1500" height="2000" viewBox="0 0 1500 2000" fill="none" xmlns="http://www.w3.org/2000/svg">
<path d="M46.752 252.802C46.752 200.892 75.7953 161.443 126.462 161.443C164.958 161.443 190.977 182.341 196.719 218.081H175.781C170.706 192.124 153.491 178.974 126.468 178.974C86.2762 178.974 68.3811 212.35 68.3811 252.802C68.3811 293.254 86.6189 326.287 126.131 326.287C155.854 326.287 174.434 307.748 177.808 279.768H197.735C193.682 319.211 167.67 344.16 126.131 344.16C75.1279 344.16 46.752 304.717 46.752 252.802Z" fill="#9747FF"/>
<path d="M476.305 165.488H497.243V197.856H497.922C508.728 177.63 526.965 164.144 551.276 164.144C553.976 164.144 555.666 164.486 557.019 164.816V185.384C544.524 183.362 530.675 186.056 519.87 193.811C506.364 203.924 497.237 220.104 497.237 240.666V339.78H476.299L476.305 165.488Z" fill="#9747FF"/>
<path d="M1084.11 98.7427H1105.05V128.409H1084.11V98.7427ZM1084.11 165.488H1105.05V339.773H1084.11V165.488Z" fill="#9747FF"/>
<path d="M708.141 252.802C708.141 200.892 738.874 161.443 789.197 161.443C839.521 161.443 869.575 200.886 869.575 252.802C869.575 304.717 839.521 344.16 789.197 344.16C738.874 344.16 708.141 304.717 708.141 252.802ZM848.306 252.802C848.306 212.014 828.036 178.974 789.197 178.974C750.016 178.974 729.758 212.014 729.758 252.802C729.758 293.59 750.016 326.629 789.197 326.629C828.036 326.629 848.306 293.59 848.306 252.802Z" fill="#9747FF"/>
<path d="M1316.06 394.725V376.186H1317.08C1320.13 377.194 1324.85 378.545 1332.95 378.545C1346.13 378.545 1355.59 372.819 1362 354.946L1367.74 339.437L1300.54 165.494H1322.83L1364.71 278.093C1370.78 294.268 1378.56 317.867 1378.56 317.867H1379.22C1379.22 317.867 1386.65 294.268 1392.4 278.093L1432.59 165.494H1454.2L1382.27 357.983C1370.44 389.336 1356.59 397.42 1333.97 397.42C1326.2 397.42 1321.48 396.412 1316.06 394.725Z" fill="#9747FF"/>
<path d="M601.944 333.88L616.706 333.033C625.996 332.613 629.364 332.193 629.364 327.98V196.571C629.364 177.192 626.838 172.985 615.87 172.144L599.406 170.038L600.254 165.824L652.165 154.031V328.82C652.165 331.767 653.843 332.193 667.348 333.027L680.854 333.874L682.123 339.767H600.675L601.944 333.88ZM618.402 94.6556C618.402 86.2351 624.734 75.2759 636.97 75.2759C649.207 75.2759 654.27 86.2291 654.27 94.2294C654.27 102.23 648.365 112.763 636.549 112.763C624.313 112.763 618.402 102.23 618.402 94.6496V94.6556Z" fill="#9747FF"/>
<path d="M1190.21 307.136L1192.25 179.028L1161.19 178.212L1164.46 166.377L1192.66 165.152L1194.29 130.066L1214.73 130.468L1214.33 165.56H1272.36L1268.69 179.022H1214.33C1214.33 179.022 1211.87 302.647 1211.87 303.049C1211.05 323.449 1222.09 331.197 1236.8 331.197C1251.93 331.197 1261.73 322.224 1272.36 314.878L1275.23 318.545C1260.91 332.007 1246.61 345.067 1227 345.067C1209.01 345.067 1189.79 338.135 1190.21 307.124V307.136Z" fill="#9747FF"/>
<path d="M346.579 322.638C346.579 313.257 358.028 273.274 374.786 224.725L371.918 223.909C348.617 269.198 315.1 317.333 301.619 331.617C294.253 339.365 285.672 345.079 275.041 345.079C263.604 345.079 249.695 332.019 249.695 317.333C249.695 307.544 259.912 280.206 270.14 252.466L298.751 174.947L280.759 172.906L249.695 215.747L246.021 212.482C263.604 178.614 282.804 158.622 294.253 158.622C302.425 158.622 317.962 168.003 317.962 173.308C317.962 180.246 302.016 219.006 289.755 253.684C280.759 278.573 269.731 309.17 269.731 315.292C269.731 324.271 278.318 331.203 287.71 331.203C299.971 331.203 342.075 273.274 378.045 200.244L390.715 162.709L411.148 164.75L390.715 229.617L362.916 328.352L379.675 330.801L410.342 288.368L414.016 291.633C396.848 324.679 377.631 345.493 362.916 345.493C355.154 345.493 346.567 332.847 346.567 322.638H346.579Z" fill="#9747FF"/>
<path d="M907.627 313.252C907.627 303.463 913.76 296.123 921.529 296.123C929.298 296.123 935.011 302.244 935.011 309.999C935.011 315.706 930.104 321.828 924.794 323.869C933.381 331.623 946.466 338.969 962.4 339.371C986.513 337.331 995.918 318.563 995.509 302.658C995.1 285.523 979.574 271.647 965.269 257.777C947.686 241.05 932.972 226.766 932.563 206.774C932.154 179.034 961.186 158.634 986.928 158.634C1010.64 158.634 1028.62 169.245 1029.03 188.829C1029.03 199.434 1022.08 205.556 1014.32 205.556C1006.96 205.556 1001.65 199.842 1001.65 191.68C1001.65 185.558 1005.32 180.259 1011.05 177.804C1002.88 170.056 992.658 164.75 980.801 164.75C959.544 166.377 948.913 181.879 949.328 199.422C949.328 214.523 960.368 225.944 977.535 241.447C992.25 254.908 1012.69 273.274 1013.1 295.708C1013.1 323.046 985.298 345.079 955.455 345.079C928.889 345.079 907.633 332.841 907.633 313.252H907.627Z" fill="#9747FF"/>
<path d="M46.752 1252.45C46.752 1200.55 75.7953 1161.1 126.462 1161.1C164.958 1161.1 190.977 1181.99 196.719 1217.73H175.781C170.706 1191.78 153.491 1178.63 126.468 1178.63C86.2762 1178.63 68.3811 1212 68.3811 1252.45C68.3811 1292.91 86.6189 1325.94 126.131 1325.94C155.854 1325.94 174.434 1307.4 177.808 1279.42H197.735C193.682 1318.86 167.67 1343.81 126.131 1343.81C75.1399 1343.81 46.764 1304.37 46.764 1252.45H46.752Z" fill="#9747FF"/>
<path d="M476.305 1165.14H497.243V1197.51H497.922C508.728 1177.28 526.965 1163.8 551.276 1163.8C553.976 1163.8 555.666 1164.14 557.019 1164.47V1185.04C544.524 1183.01 530.675 1185.71 519.87 1193.46C506.364 1203.58 497.237 1219.76 497.237 1240.32V1339.43H476.299V1165.15L476.305 1165.14Z" fill="#9747FF"/>
<path d="M1084.11 1098.4H1105.05V1128.06H1084.11V1098.4ZM1084.11 1165.14H1105.05V1339.43H1084.11V1165.14Z" fill="#9747FF"/>
<path d="M698.033 1252.45C698.033 1200.55 728.766 1161.1 779.09 1161.1C829.414 1161.1 859.467 1200.54 859.467 1252.45C859.467 1304.37 829.414 1343.81 779.09 1343.81C728.766 1343.81 698.033 1304.37 698.033 1252.45ZM838.199 1252.45C838.199 1211.67 817.929 1178.63 779.09 1178.63C739.909 1178.63 719.65 1211.67 719.65 1252.45C719.65 1293.24 739.909 1326.28 779.09 1326.28C817.929 1326.28 838.199 1293.24 838.199 1252.45Z" fill="#9747FF"/>
<path d="M1316.06 1394.38V1375.84H1317.08C1320.13 1376.85 1324.85 1378.2 1332.95 1378.2C1346.13 1378.2 1355.59 1372.47 1362 1354.6L1367.74 1339.09L1300.54 1165.15H1322.83L1364.71 1277.75C1370.78 1293.92 1378.56 1317.52 1378.56 1317.52H1379.22C1379.22 1317.52 1386.65 1293.92 1392.4 1277.75L1432.59 1165.15H1454.2L1382.27 1357.64C1370.44 1388.99 1356.59 1397.07 1333.97 1397.07C1326.2 1397.07 1321.48 1396.07 1316.06 1394.38Z" fill="#9747FF"/>
<path d="M593.201 1329.63C593.201 1326.77 647.975 1174.6 647.975 1174.6L629.989 1172.56L599.329 1214.99L595.655 1211.72C612.822 1178.68 632.034 1158.28 646.748 1158.28C654.92 1158.28 663.915 1170.52 663.507 1181.13C663.507 1189.29 611.186 1328.01 611.186 1328.01L629.172 1330.45L660.644 1288.02L664.318 1291.29C646.742 1324.33 627.53 1344.73 616.496 1344.73C608.324 1344.73 592.798 1334.94 593.201 1329.63ZM659.424 1102.39C659.424 1091.37 667.595 1081.17 675.364 1081.17C684.354 1081.17 689.67 1087.29 689.67 1095.46C689.67 1106.88 681.498 1117.08 673.32 1117.08C664.733 1117.08 659.418 1110.96 659.418 1102.39L659.424 1102.39Z" fill="#9747FF"/>
<path d="M1172.47 1328.82L1213.34 1176.65L1182.68 1176.24L1185.55 1165.23L1217.02 1163.19L1232.15 1108.52H1250.95L1235.83 1164L1275.06 1164.41L1273.43 1176.65H1232.15L1190.86 1328.01L1210.07 1330.46L1240.73 1288.03L1244.41 1291.29C1227.25 1324.34 1208.44 1344.74 1196.59 1344.74C1188.41 1344.74 1170.42 1334.94 1172.47 1328.82Z" fill="#9747FF"/>
<path d="M385.171 1308.68H384.323C366.175 1323.84 342.55 1344.9 314.282 1344.9C299.508 1344.9 288.961 1340.69 279.683 1332.27C270.392 1323 266.598 1308.68 266.598 1291.41V1170.12C266.598 1167.58 266.598 1167.17 250.976 1165.9L237.892 1164.64L236.635 1159.16H288.955V1283.83C288.955 1314.15 303.729 1327.63 328.617 1327.63C350.144 1327.63 368.713 1315.42 384.323 1301.1V1181.91C384.323 1168.85 381.377 1166.75 368.713 1165.9L355.628 1164.64L354.36 1159.16H407.101V1318.37C407.101 1325.53 407.948 1329.31 418.069 1330.16L437.058 1331.43L436.21 1335.63L384.311 1345.75L385.159 1308.68H385.171Z" fill="#9747FF"/>
<path d="M913.078 1335.76L908.58 1289.25H914.299L922.47 1313.32C933.102 1330.45 949.445 1339.02 965.398 1339.02C991.555 1339.02 1009.55 1323.52 1009.55 1301.08C1009.55 1276.6 990.743 1266.4 961.724 1257.43C939.235 1250.49 913.493 1237.84 913.493 1208.47C913.493 1180.73 938.014 1158.7 969.902 1158.7C982.974 1158.7 994.423 1161.55 1005.05 1166.04L1018.14 1162.37L1021 1208.07H1014.86L999.336 1174.61C991.97 1169.72 982.577 1164.82 968.669 1164.82C945.368 1164.82 931.472 1177.88 931.472 1197.46C931.472 1220.3 950.275 1228.06 974.796 1236.62C1000.97 1245.6 1028.35 1254.98 1028.35 1290.48C1028.35 1319.86 1002.6 1344.74 962.945 1344.74C945.362 1344.74 927.792 1341.88 913.078 1335.76Z" fill="#9747FF"/>
<path d="M46.752 1786.42C46.752 1722.78 97.0276 1658.31 141.988 1658.31C162.011 1658.31 180.003 1668.92 180.003 1685.65C180.003 1695.84 173.46 1702.78 164.874 1702.78C158.331 1702.78 151.392 1697.89 151.392 1689.72C151.392 1682.79 156.287 1678.71 162.42 1675.85C158.331 1670.55 148.115 1664.43 137.075 1664.43C125.638 1664.43 115.416 1670.95 107.244 1679.12C87.6171 1699.1 67.9963 1743.17 67.9963 1779.89C67.9963 1811.71 83.1253 1830.07 102.746 1830.07C120.725 1830.07 138.308 1816.19 155.878 1789.27L159.967 1792.53C142.805 1819.46 119.096 1844.75 94.1654 1844.75C64.7312 1844.75 46.752 1818.23 46.752 1786.41L46.752 1786.42Z" fill="#9747FF"/>
<path d="M467.846 1833.57L481.772 1832.72C491.471 1832.3 494.857 1831.88 494.857 1827.67V1695.84C494.857 1676.88 492.319 1672.68 482.199 1671.83L465.32 1669.72L466.168 1665.51L517.646 1653.72L516.378 1722.37H516.799C533.25 1676.88 551.398 1652.45 574.194 1652.45C588.535 1652.45 595.709 1662.14 595.709 1671.4C595.709 1680.25 589.377 1689.09 579.257 1689.09C570.387 1689.09 562.378 1681.94 561.109 1668.46C542.12 1674.35 528.614 1695.84 517.22 1734.16V1828.51C517.22 1831.45 517.22 1832.29 530.304 1832.71L550.562 1833.56L551.819 1839.45H466.589L467.846 1833.57Z" fill="#9747FF"/>
<path d="M1069.98 1833.75L1084.29 1832.93C1093.28 1832.53 1096.55 1832.11 1096.55 1828.04V1700.75C1096.55 1681.98 1094.1 1677.9 1083.47 1677.08L1067.53 1675.04L1068.35 1670.96L1118.62 1659.54V1828.85C1118.62 1831.71 1120.26 1832.12 1133.33 1832.94L1146.42 1833.75L1147.64 1839.47H1068.75L1069.98 1833.75ZM1085.92 1602.01C1085.92 1593.86 1092.05 1583.24 1103.9 1583.24C1115.75 1583.24 1120.66 1593.86 1120.66 1601.61C1120.66 1609.36 1114.94 1619.56 1103.5 1619.56C1091.64 1619.56 1085.92 1609.36 1085.92 1602.01Z" fill="#9747FF"/>
<path d="M710.576 1776.63C710.576 1724.41 750.636 1658.31 794.784 1658.31C826.671 1658.31 844.254 1690.14 844.254 1730.52C844.254 1783.97 804.194 1844.76 758.002 1844.76C722.44 1844.76 710.576 1809.27 710.576 1776.63ZM817.267 1767.25C822.174 1751.34 825.439 1729.3 825.439 1714.21C825.439 1684.42 816.455 1665.25 797.243 1665.25C771.489 1665.25 748.597 1706.05 736.745 1743.59C731.839 1759.91 728.982 1781.94 728.982 1792.14C728.982 1818.25 737.154 1838.24 755.548 1838.24C781.705 1838.24 805.415 1805.6 817.267 1767.25V1767.25Z" fill="#9747FF"/>
<path d="M1257.96 1900.65C1258.37 1891.68 1264.9 1884.33 1273.9 1884.33C1285.76 1884.33 1292.29 1898.21 1284.11 1911.67C1284.11 1911.67 1298.02 1914.53 1301.7 1915.34C1325.81 1912.48 1369.54 1867.61 1386.72 1842.72C1379.36 1759.49 1362.6 1672.99 1346.25 1672.99L1336.85 1672.18L1309.46 1715.83L1305.37 1712.56C1321.32 1679.52 1333.98 1657.49 1349.93 1657.49C1378.54 1657.49 1392.03 1694.21 1401.42 1818.65C1401.02 1817.42 1402.25 1817.42 1402.66 1818.65C1423.9 1775.81 1446.81 1709.31 1445.57 1681.97C1432.9 1690.95 1419.82 1680.34 1419.82 1670.95C1419.82 1662.8 1426.36 1655.86 1435.36 1655.86C1447.21 1655.86 1454.57 1666.47 1454.57 1681.56C1454.57 1732.56 1419.42 1815.38 1375.27 1864.34C1349.1 1896.16 1320.49 1922.68 1290.65 1922.68C1271.04 1922.68 1257.95 1914.52 1257.95 1900.65L1257.96 1900.65Z" fill="#9747FF"/>
<path d="M634.48 1598.43H655.418V1628.1H634.48V1598.43ZM634.48 1665.17H655.418V1839.46H634.48V1665.17Z" fill="#9747FF"/>
<path d="M1206.77 1809.46V1682.37H1180.42V1665.17H1206.77V1611.57H1227.7V1665.17H1260.12V1682.37H1227.7V1806.08C1227.7 1818.56 1233.45 1822.6 1244.6 1822.6C1249.32 1822.6 1255.4 1821.25 1258.44 1819.91H1259.45V1837.77C1253.71 1839.8 1247.63 1840.81 1240.21 1840.81C1220.28 1840.81 1206.77 1831.71 1206.77 1809.46Z" fill="#9747FF"/>
<path d="M248.764 1788.22V1665.17H269.701V1786.87C269.701 1813.17 285.576 1825.97 310.909 1825.97C340.626 1825.97 361.57 1803.73 361.57 1774.06V1665.17H382.171V1839.46H361.57V1813.84H360.896C348.738 1830.7 333.879 1843.5 306.177 1843.5C272.407 1843.5 248.764 1823.28 248.764 1788.22Z" fill="#9747FF"/>
<path d="M889.557 1785.19H910.831C913.874 1814.52 934.138 1826.32 962.171 1826.32C991.215 1826.32 1006.41 1812.83 1006.41 1792.6C1006.41 1773.39 995.604 1766.98 959.802 1758.9C924.343 1750.8 895.973 1742.38 895.973 1708.67C895.973 1679.68 920.963 1661.48 956.759 1661.48C998.304 1661.48 1017.55 1682.38 1021.6 1713.06H1000.67C998.304 1690.47 982.766 1678.67 956.759 1678.67C929.742 1678.67 916.91 1691.49 916.91 1707.66C916.91 1727.55 933.459 1732.27 966.891 1740.03C1002.02 1747.44 1027.35 1756.21 1027.35 1792.28C1027.35 1823.29 1002.36 1844.19 961.828 1844.19C915.221 1844.19 891.577 1818.91 889.551 1785.2L889.557 1785.19Z" fill="#9747FF"/>
<path d="M31.5939 752.307C31.5939 695.873 72.1103 652.486 124.857 652.486C159.036 652.486 183.93 669.339 183.93 690.387C183.93 700.92 175.909 708.92 167.478 708.92C156.51 708.92 148.91 700.92 151.856 688.706C151.856 679.44 157.761 677.333 157.761 674.812C156.083 669.753 141.73 658.806 123.583 658.806C87.7143 658.806 56.0613 694.186 56.0613 741.774C56.0613 791.054 85.5977 826.855 124.003 826.855C150.173 826.855 167.472 816.322 183.076 792.315L188.139 795.262C171.688 824.748 148.056 843.696 115.146 843.696C69.1458 843.696 31.5879 804.528 31.5879 752.301L31.5939 752.307Z" fill="#9747FF"/>
<path d="M423.843 837.832L445.1 772.959L471.263 673.816L454.504 671.775L424.258 714.202L420.578 710.937C437.746 677.483 456.957 657.083 471.672 657.083C479.441 657.083 488.027 669.321 488.027 679.932C488.027 689.312 479.849 719.507 464.318 767.647H466.362C486.392 729.704 508.875 690.129 517.864 681.156C529.722 662.791 535.032 657.083 548.11 657.083C561.598 657.083 570.593 668.504 570.593 679.518C570.593 689.312 563.233 696.244 554.653 696.244C545.657 696.244 535.032 685.231 547.293 672.586L536.661 668.096C529.716 671.361 499.464 717.053 463.494 783.966L444.691 839.86L423.843 837.82V837.832Z" fill="#9747FF"/>
<path d="M1060.87 828.854C1060.87 825.997 1115.65 673.822 1115.65 673.822L1097.67 671.781L1067 714.208L1063.33 710.943C1080.49 677.897 1099.71 657.497 1114.43 657.497C1122.6 657.497 1131.59 669.741 1131.18 680.352C1131.18 688.508 1078.86 827.227 1078.86 827.227L1096.84 829.676L1128.32 787.243L1131.99 790.508C1114.42 823.554 1095.21 843.954 1084.17 843.954C1076 843.954 1060.48 834.159 1060.87 828.854ZM1127.1 601.603C1127.1 590.584 1135.27 580.387 1143.03 580.387C1152.03 580.387 1157.34 586.509 1157.34 594.671C1157.34 606.092 1149.16 616.295 1140.99 616.295C1132.4 616.295 1127.09 610.173 1127.09 601.609L1127.1 601.603Z" fill="#9747FF"/>
<path d="M691.633 752.151C691.633 699.113 731.283 658.313 781.15 658.313C830.199 658.313 869.447 697.073 869.447 749.702C869.447 803.964 829.796 843.948 780.747 843.948C730.874 843.948 691.633 805.189 691.633 752.151ZM844.101 753.381C844.101 723.595 837.156 697.487 821.624 681.984C810.584 670.563 796.688 664.441 780.338 664.441C743.959 664.441 716.16 701.16 716.16 747.668C716.16 779.081 725.156 806.821 741.097 822.738C750.904 832.533 765.215 838.24 781.15 838.24C816.712 838.24 844.101 800.705 844.101 753.381Z" fill="#9747FF"/>
<path d="M1289.77 930.037C1289.77 920.356 1296.52 912.35 1307.07 912.35C1316.77 912.35 1324.79 919.936 1326.48 932.99C1343.36 929.197 1351.38 911.51 1363.61 873.176L1372.9 843.696V843.276L1308.34 684.493C1302.01 668.072 1300.74 665.966 1291.04 665.119L1278.81 663.853L1277.54 658.379H1354.76L1353.91 663.853L1342.51 665.119C1330.7 665.539 1329.01 669.747 1333.24 681.54L1384.71 811.688L1425.65 699.239C1435.36 671.019 1433.67 667.226 1413.83 665.545L1402.01 663.859L1400.75 658.385H1470.38L1469.11 663.859L1459.41 665.125C1445.48 665.972 1443.79 671.019 1431.98 702.606L1380.93 839.495L1367.42 883.295C1354.34 927.516 1339.56 947.736 1313.41 947.736C1299.91 947.736 1289.78 939.73 1289.78 930.043L1289.77 930.037Z" fill="#9747FF"/>
<path d="M623.781 597.612H644.719V627.279H623.781V597.612ZM623.781 664.363H644.719V838.648H623.781V664.363Z" fill="#9747FF"/>
<path d="M1197.5 808.646V681.558H1171.15V664.363H1197.5V610.762H1218.43V664.363H1250.86V681.558H1218.43V805.273C1218.43 817.744 1224.18 821.79 1235.32 821.79C1240.05 821.79 1246.13 820.439 1249.17 819.095H1250.18V836.962C1244.45 838.991 1238.36 839.999 1230.93 839.999C1211.01 839.999 1197.5 830.894 1197.5 808.646Z" fill="#9747FF"/>
<path d="M235.156 787.405V664.357H256.094V786.055C256.094 812.349 271.975 825.157 297.308 825.157C327.019 825.157 347.962 802.908 347.962 773.247V664.357H368.563V838.643H347.962V813.021H347.295C335.13 829.88 320.272 842.682 292.576 842.682C258.8 842.682 235.156 822.456 235.156 787.399V787.405Z" fill="#9747FF"/>
<path d="M888.946 784.375H910.22C913.263 813.705 933.527 825.505 961.56 825.505C990.603 825.505 1005.8 812.019 1005.8 791.793C1005.8 772.581 994.993 766.171 959.191 758.087C923.731 749.991 895.362 741.564 895.362 707.858C895.362 678.87 920.352 660.667 956.148 660.667C997.693 660.667 1016.94 681.565 1020.99 712.246H1000.06C997.693 689.655 982.155 677.861 956.148 677.861C929.131 677.861 916.299 690.675 916.299 706.85C916.299 726.74 932.847 731.463 966.28 739.218C1001.41 746.63 1026.74 755.398 1026.74 791.469C1026.74 822.48 1001.75 843.378 961.217 843.378C914.609 843.378 890.966 818.099 888.939 784.387L888.946 784.375Z" fill="#9747FF"/>
</svg>
