<svg width="229" height="79" viewBox="0 0 229 79" fill="none" xmlns="http://www.w3.org/2000/svg">
<path d="M79.0412 0H0.725586V78.2747H79.0412V0Z" fill="#142D52"/>
<mask id="mask0_412_743" style="mask-type:luminance" maskUnits="userSpaceOnUse" x="0" y="25" width="78" height="30">
<path d="M77.0384 25.603H0.714844V54.2595H77.0384V25.603Z" fill="white"/>
</mask>
<g mask="url(#mask0_412_743)">
<path d="M37.1531 29.7229C37.1312 29.5718 36.98 29.4623 36.7827 29.4623H27.5258C27.3417 29.4623 27.2322 29.5827 27.2103 29.701C27.1883 29.8215 27.2431 29.9726 27.4382 30.0493C27.471 30.0712 27.699 30.1478 28.5252 30.4194C29.1673 30.6363 29.8948 30.886 30.0263 30.9407C30.2104 31.0065 30.3748 31.1247 30.2652 31.5606C30.2323 31.692 26.5024 47.0859 26.4147 47.4013C26.3052 47.7277 25.9041 47.8788 25.6959 47.9664C25.6302 47.9993 25.2817 48.1175 24.8807 48.2709C24.0654 48.5644 23.4891 48.7812 23.3905 48.825C23.3685 48.825 23.3795 48.8469 23.3576 48.8579C23.3466 48.8579 23.3466 48.836 23.3247 48.825C23.0968 48.7374 21.4093 48.0102 20.9754 47.8021C20.627 47.6291 20.5941 47.3991 20.5722 47.1056C20.5722 47.0618 20.5722 46.4529 20.5941 45.5066C20.8111 29.1446 20.7782 29.0702 20.7366 28.9935C20.6379 28.7767 20.3224 28.7219 20.1164 28.9169C20.0287 29.0045 18.5494 30.6012 15.7443 33.6568C10.9361 38.8742 2.8977 47.594 2.54049 47.8985C2.21395 48.1592 1.62663 48.4417 0.811385 48.7462C0.756598 48.7681 0.723729 48.779 0.712772 48.79L0.6799 48.8119L0.484863 48.8447V49.0397L0.539638 49.4756L0.833305 49.4099H9.80752C9.99161 49.4099 10.145 49.2894 10.156 49.1273C10.1779 48.9762 10.0683 48.8447 9.90613 48.8119C9.15664 48.6607 6.34933 48.0715 5.87158 47.9314C5.69845 47.8766 5.61079 47.8109 5.59983 47.7693C5.59983 47.7364 5.59983 47.6817 5.66558 47.6072C5.89349 47.2699 10.3532 41.7808 10.6907 41.5092C11.0501 41.2267 11.1684 41.1938 11.8763 41.1829C12.1152 41.1719 13.4432 41.1391 14.7581 41.1829C15.7487 41.2048 16.7042 41.2814 17.1951 41.3252C17.5764 41.3581 17.5874 41.5311 17.5874 41.8356V41.9123C17.5874 42.0218 17.5435 42.9987 17.4997 44.0216C17.4449 45.2504 17.3792 46.6193 17.3682 47.0005C17.3572 47.6203 17.2915 47.6422 16.9321 47.7715C16.8992 47.7715 13.6251 48.825 13.5177 48.8907L13.3008 48.9783V49.1623C13.3008 49.2281 13.3446 49.3682 13.6273 49.4339H23.156C23.2436 49.4339 23.3181 49.412 23.3839 49.3682C23.4387 49.4011 23.4935 49.4339 23.6008 49.4339H32.4326C32.6824 49.4339 32.803 49.2916 32.8249 49.1733C32.8468 49.055 32.792 48.8907 32.586 48.8141C32.5093 48.7703 32.1609 48.652 31.4004 48.3782C30.8021 48.1613 30.16 47.9335 29.9431 47.8459C29.748 47.7693 29.7042 47.6948 29.7918 47.3246C29.8138 47.2261 33.3925 32.0622 33.5218 31.6482C33.6314 31.3328 33.7497 31.1379 34.142 30.9626C34.337 30.875 34.6855 30.7568 34.9244 30.6801L35.1304 30.6144C35.3035 30.5596 36.8047 30.1259 36.9581 30.0931C37.1531 30.0274 37.1969 29.8762 37.186 29.7777L37.1531 29.7229ZM17.7276 33.8977C17.7276 34.2241 17.6947 36.007 17.6728 37.4855C17.6509 38.5281 17.64 39.4306 17.64 39.5401C17.64 39.7569 17.64 39.9212 17.0636 39.9212H12.4417C12.17 39.9212 12.0823 39.8446 12.0713 39.8336C12.0713 39.8227 12.0713 39.735 12.1919 39.6277C12.3234 39.4656 14.0086 37.6608 15.3564 36.2042C16.6297 34.8352 17.412 33.9853 17.4887 33.8999C17.5874 33.7794 17.6619 33.7378 17.7057 33.7159C17.7057 33.7488 17.7276 33.8035 17.7276 33.8999V33.8977Z" fill="#E1F4E4"/>
<path d="M53.9904 42.5496C53.7954 42.2999 53.4469 42.2671 53.1752 42.2671H45.8884C45.6824 42.2671 45.5181 42.3876 45.4962 42.5496C45.4962 42.5934 45.4852 42.8212 45.7898 42.887C45.8665 42.9089 46.5196 43.0819 47.302 43.29C48.4766 43.6054 49.9449 44.0084 50.2057 44.0719C50.2386 44.0719 50.2824 44.1048 50.3043 44.1267C50.3372 44.1815 50.2934 44.3326 50.2714 44.3983L50.2495 44.475C50.2276 44.6064 49.5307 47.5086 49.4562 47.7255C49.3686 47.9423 49.3466 47.9861 49.0311 48.0847C48.8031 48.1613 47.8893 48.3672 46.5503 48.3234C42.7546 48.2249 39.9911 45.9097 39.5243 42.4204C38.9479 38.3003 41.8845 33.4837 46.2128 31.473C47.9419 30.6691 49.9975 30.5487 51.0757 30.5487C52.2723 30.5487 53.1204 30.691 53.3921 30.7765C53.7735 30.8969 53.7954 31.0152 53.7954 31.5584C53.7954 31.7315 53.6968 34.1781 53.6332 35.4835C53.6003 36.1472 53.5784 36.6357 53.5784 36.6795C53.5784 36.778 53.6003 36.8635 53.6442 36.9401C53.7954 37.1789 54.1767 37.0913 54.2863 36.778C54.352 36.616 56.1907 31.0809 56.2126 31.0262C56.2674 30.8203 56.3551 30.5049 56.1907 30.2113C56.0592 29.9836 55.8204 29.8302 55.4412 29.7338C53.6793 29.2783 51.2861 29.1797 50.5147 29.1797C45.2069 29.1797 41.455 31.8979 40.7581 32.4411C38.5184 34.2022 36.8419 36.6707 36.1669 39.2356C35.47 41.8224 35.9061 44.4005 37.3854 46.3236C38.5162 47.8021 40.791 49.5741 45.1411 49.5741H45.5772C48.7418 49.4865 51.972 48.2051 51.994 48.1942C52.3643 48.0628 52.5923 47.8678 52.6909 47.5962C52.7895 47.3465 53.8765 43.8989 54.0825 43.2265C54.1592 42.9549 54.1263 42.738 54.0058 42.5628L53.9948 42.5518L53.9904 42.5496Z" fill="#E1F4E4"/>
<path d="M75.4959 48.8228C75.268 48.7352 73.5805 48.008 73.1466 47.7999C72.7762 47.6269 72.7543 47.375 72.7433 47.0924C72.7433 46.961 72.7652 44.7334 72.7981 42.1356C72.9712 29.1227 72.9406 29.0679 72.8967 28.9803C72.7981 28.7635 72.4825 28.7087 72.2765 28.9037C72.1889 28.9913 70.874 30.426 68.3384 33.1661C63.7056 38.1996 55.0688 47.5699 54.6656 47.8963C54.1879 48.2664 53.3178 48.6257 52.9913 48.7549C52.9036 48.7877 52.8488 48.8097 52.8488 48.8097C52.7173 48.8754 52.6428 49.0265 52.6757 49.1579C52.7086 49.3003 52.8269 49.3857 52.9803 49.3857H61.9546C62.1606 49.3857 62.2811 49.2433 62.303 49.1032C62.3249 48.952 62.2263 48.8206 62.0641 48.7768C61.2489 48.6147 58.4854 48.0365 58.0296 47.8963C57.8564 47.8415 57.7688 47.7758 57.7578 47.7342C57.7359 47.6794 57.7797 47.6028 57.8016 47.5831C58.0186 47.2786 62.5112 41.7457 62.8268 41.4741C63.2081 41.1916 63.3264 41.1587 64.0343 41.1478C64.2731 41.1368 65.6122 41.104 66.9161 41.1478C67.9702 41.1697 68.9827 41.2573 69.3531 41.2901C69.7344 41.323 69.7453 41.496 69.7453 41.8005V41.8772C69.7453 41.9867 69.7015 42.9526 69.6577 43.9865C69.6029 45.2153 69.5371 46.5842 69.5262 46.9654C69.5043 47.5852 69.4495 47.6071 69.0901 47.7364C69.0572 47.7364 65.7831 48.779 65.6757 48.8556L65.4588 48.9323V49.1163C65.4588 49.182 65.5026 49.3222 65.7853 49.3879H75.314C75.509 49.3879 75.6624 49.2893 75.6953 49.1382C75.7281 49.0068 75.6514 48.8776 75.5112 48.8118L75.5002 48.8228H75.4959ZM69.8834 33.8977C69.8834 34.2241 69.8615 36.007 69.8396 37.4964C69.8286 38.5391 69.8067 39.4415 69.8067 39.551C69.8067 39.7459 69.8067 39.9321 69.2194 39.9321H64.5756C64.3038 39.9321 64.2162 39.8555 64.2052 39.8445C64.2052 39.8336 64.2052 39.7569 64.3148 39.6386C64.4463 39.4875 65.805 38.0287 67.1112 36.6159C68.4173 35.2141 69.5372 34.0072 69.6248 33.9086C69.7344 33.7882 69.8089 33.7466 69.8418 33.7246C69.8418 33.7575 69.8637 33.8123 69.8637 33.9086L69.8834 33.8977Z" fill="#E1F4E4"/>
</g>
<path d="M92.7031 22.3726H99.1308L113.163 46.9528L127.151 22.3726H133.579V55.6616H126.921V36.3098L115.88 55.6616H110.408L99.3675 36.3098V55.6616H92.7097V22.3726H92.6987H92.7031Z" fill="#142D52"/>
<path d="M149.698 31.3091C156.734 31.3091 160.118 34.4939 160.118 41.0058V55.7031H153.842V52.4745C152.319 54.8007 149.698 56.2354 146.511 56.2354C141.802 56.2354 138.473 53.1469 138.473 48.7662C138.473 44.6243 141.475 41.733 146.086 41.2971L152.601 40.732C153.46 40.6334 153.842 40.3509 153.842 39.7858V39.4046C153.842 37.8823 152.362 36.9799 149.698 36.9799C146.651 36.9799 144.51 38.1211 143.748 40.0683L139.082 36.7412C140.561 33.2738 144.313 31.3156 149.687 31.3156L149.698 31.3047V31.3091ZM147.936 45.8224C146.075 46.0611 144.988 47.0074 144.988 48.4421C144.988 50.0629 146.272 51.0617 148.372 51.0617C151.514 51.0617 153.844 48.8757 153.844 46.0721V45.1259L147.949 45.8443L147.938 45.8224H147.936Z" fill="#142D52"/>
<path d="M164.97 25.0795C164.97 22.7534 166.677 21.0361 168.963 21.0361C171.249 21.0361 173.009 22.7424 173.009 25.0795C173.009 27.4166 171.301 29.0704 168.963 29.0704C166.625 29.0704 164.97 27.3641 164.97 25.0795ZM172.106 55.6613H165.829V31.885H172.106V55.6613Z" fill="#142D52"/>
<path d="M178.001 31.8851H184.091V35.4949C185.897 32.7328 188.66 31.3091 191.847 31.3091C197.177 31.3091 200.223 34.7326 200.223 40.7671V55.6505H193.795V42.4755C193.795 39.0936 192.272 37.3435 189.368 37.3435C186.039 37.3435 184.277 39.7683 184.277 44.2913V55.6527H178.001V31.8764V31.8851Z" fill="#142D52"/>
<path d="M216.539 31.3088C223.815 31.3088 228.285 36.2985 228.285 43.9625V45.6688H210.773L210.817 45.7674C211.577 48.9522 214.428 50.3343 217.19 50.3343C219.951 50.3343 222.281 49.3333 223.944 47.9096L226.565 53.0941C224.619 54.715 221.66 56.2351 217.102 56.2351C209.064 56.2351 204.354 50.8644 204.354 43.7764C204.354 36.6884 209.064 31.3176 216.537 31.3176V31.3066L216.539 31.3088ZM216.352 36.6358C213.35 36.6358 211.36 38.2019 210.74 41.1041H221.443C221.161 38.5392 219.399 36.6358 216.352 36.6358Z" fill="#142D52"/>
</svg>
