<svg width="193" height="22" viewBox="0 0 193 22" fill="none" xmlns="http://www.w3.org/2000/svg">
<path d="M0.00117264 0H17.9282V5.18127H11.9618V20.8124H5.87903V5.18127H0V0H0.00117264Z" fill="black"/>
<path d="M19.8931 0H25.9759L27.4895 7.13197C27.9844 9.40175 28.5084 12.9246 28.5084 12.9246H28.5666C28.5666 12.9246 29.1197 9.81052 29.6437 7.42311L31.2447 0H36.7453L38.3452 7.36488C38.8691 9.78024 39.3932 12.9235 39.3932 12.9235H39.4514C39.4514 12.9235 40.0045 9.40175 40.4982 7.07373L42.0119 0H48.2402L42.7699 20.8124H36.6289L34.7659 11.993C34.3886 10.1878 34.0393 7.94718 34.0393 7.94718H33.9799C33.9799 7.94718 33.6306 10.1878 33.2533 11.993L31.4485 20.8124H25.2202L19.8942 0H19.8931Z" fill="black"/>
<path d="M50.6177 0H66.8272V4.94836H56.7005V7.77248H65.1679V12.3423H56.7005V15.6032H67.1183V20.8136H50.6177V0.00117284V0Z" fill="black"/>
<path d="M70.7158 0H76.7986L83.6091 11.7018H83.6673V0H89.5464V20.8124H83.2598L76.6542 9.02443H76.5948V20.8124H70.717L70.7158 0Z" fill="black"/>
<path d="M92.177 0H110.104V5.18127H104.138V20.8124H98.0548V5.18127H92.1758V0H92.177Z" fill="black"/>
<path d="M119.241 13.5069L112.111 0H118.718L120.929 4.62926C121.685 6.20145 122.325 7.97628 122.325 7.97628H122.384C122.384 7.97628 123.053 6.20145 123.81 4.62926L126.022 0H132.482L125.324 13.5069V20.8124H119.241V13.5069Z" fill="black"/>
<path d="M144.459 0H149.5L142.098 20.8404H137.057L144.459 0Z" fill="black"/>
<path d="M157.231 14.8966C159.184 13.1182 162.068 11.2526 164.255 9.76654C165.362 9.0084 166.003 8.19202 166.003 7.11361C166.003 5.85934 165.188 5.04414 163.613 5.04414C162.652 5.04414 161.981 5.30616 161.515 5.91874C160.99 6.58954 160.757 7.34653 160.757 8.65786H155.277C155.277 6.29723 155.511 5.27704 156.268 3.93543C157.377 1.95446 159.912 0.467285 163.729 0.467285C169.034 0.467285 171.743 3.23785 171.743 6.88069C171.743 8.65786 171.247 10.0868 170.111 11.1943C168.129 13.1182 165.593 14.284 163.465 15.975V16.0332H171.625V20.8418H154.956C154.956 17.9851 155.538 16.4408 157.229 14.8966H157.231Z" fill="black"/>
<path d="M174.744 10.9032C174.744 7.90087 175.502 5.18971 177.133 3.32403C178.708 1.51775 181.069 0.467285 184.041 0.467285C188.354 0.467285 191.181 2.50881 191.938 6.00608H186.343C186.081 5.21881 185.526 4.43156 184.041 4.43156C182.059 4.43156 180.748 5.94785 180.455 8.80459H180.514C181.621 7.75529 182.99 7.0845 185.002 7.0845C188.995 7.0845 192.434 9.79449 192.434 14.1384C192.434 18.5103 188.995 21.3088 184.012 21.3088C178.008 21.3088 174.744 17.3737 174.744 10.9032ZM186.897 14.1384C186.897 12.4183 185.673 11.1361 183.808 11.1361C181.972 11.1361 180.719 12.4183 180.719 14.1384C180.719 15.8585 181.973 17.1407 183.808 17.1407C185.673 17.1407 186.897 15.8574 186.897 14.1384Z" fill="black"/>
</svg>
