<svg width="306" height="74" viewBox="0 0 306 74" fill="none" xmlns="http://www.w3.org/2000/svg">
<g clip-path="url(#clip0_143_171)">
<path d="M0 72.9368L29.6905 2.10943H50.4985L79.968 72.9368H57.8935L39.304 25.8915L27.047 56.7589H41.6245L47.43 72.9368H0ZM107.21 74C90.627 74 76.5765 64.5926 76.5765 45.88C76.5765 27.1674 90.202 16.8074 104.363 16.8074C106.581 16.8074 108.8 17.02 111.12 17.5474V0H129.497V69.7726C125.273 71.6779 116.297 74 107.21 74ZM106.794 58.7747C108.375 58.7747 109.863 58.5621 111.129 58.1368V32.4494C109.863 31.9221 108.383 31.6074 106.692 31.6074C100.563 31.6074 94.962 36.1494 94.962 45.5568C94.962 54.9641 100.665 58.7747 106.794 58.7747ZM162.239 73.8894C146.82 73.8894 133.926 63.5294 133.926 45.3441C133.926 27.1589 146.812 16.7989 162.239 16.7989C177.667 16.7989 190.655 27.1589 190.655 45.3441C190.655 63.5294 177.667 73.8894 162.239 73.8894ZM162.239 58.5621C167.628 58.5621 172.38 54.3347 172.38 45.3526C172.38 36.3706 167.628 32.1347 162.239 32.1347C156.85 32.1347 152.209 36.3621 152.209 45.3526C152.209 54.3432 156.859 58.5621 162.239 58.5621ZM217.064 74C209.882 74 200.795 72.52 195.092 69.8747V0H213.477V17.4453C215.806 17.02 218.127 16.7053 220.346 16.7053C234.821 16.7053 248.132 26.2147 248.132 44.6126C248.132 64.0653 233.869 74 217.073 74H217.064ZM213.469 32.56V58.1453C214.633 58.5706 216.002 58.7832 217.591 58.7832C223.822 58.7832 229.738 54.3432 229.738 44.8253C229.738 35.9453 224.034 31.7179 217.906 31.7179C216.214 31.7179 214.846 32.0326 213.469 32.56ZM252.331 45.2421C252.331 27.5841 264.69 16.8074 279.48 16.8074C293.318 16.8074 305.991 25.6874 305.991 43.5494C305.991 45.9821 305.889 48.3041 305.566 50.6347H271.022C273.028 56.8694 278.528 59.8294 285.396 59.8294C290.997 59.8294 296.174 58.4515 301.979 55.9168V69.9768C296.59 72.7241 290.147 73.8894 283.492 73.8894C265.956 73.8894 252.331 63.3168 252.331 45.2421ZM270.818 39.1094H288.779C287.827 33.0789 283.815 30.6547 279.692 30.6547C275.57 30.6547 272.187 33.1894 270.818 39.1094Z" fill="white"/>
</g>
<defs>
<clipPath id="clip0_143_171">
<rect width="306" height="74" fill="white"/>
</clipPath>
</defs>
</svg>
