<svg width="228" height="79" viewBox="0 0 228 79" fill="none" xmlns="http://www.w3.org/2000/svg">
<path d="M78.3264 0H0.0107422V78.2747H78.3264V0Z" fill="#E00083"/>
<mask id="mask0_81_538" style="mask-type:luminance" maskUnits="userSpaceOnUse" x="0" y="25" width="77" height="30">
<path d="M76.3235 25.603H0V54.2595H76.3235V25.603Z" fill="white"/>
</mask>
<g mask="url(#mask0_81_538)">
<path d="M36.4381 29.7229C36.4162 29.5718 36.265 29.4623 36.0678 29.4623H26.8109C26.6268 29.4623 26.5172 29.5827 26.4953 29.701C26.4734 29.8215 26.5282 29.9726 26.7232 30.0493C26.7561 30.0712 26.984 30.1478 27.8102 30.4194C28.4523 30.6363 29.1799 30.886 29.3114 30.9407C29.4955 31.0065 29.6598 31.1247 29.5502 31.5606C29.5174 31.692 25.7874 47.0859 25.6998 47.4013C25.5902 47.7277 25.1892 47.8788 24.981 47.9664C24.9152 47.9993 24.5668 48.1175 24.1657 48.2709C23.3505 48.5644 22.7741 48.7812 22.6755 48.825C22.6536 48.825 22.6645 48.8469 22.6426 48.8579C22.6317 48.8579 22.6317 48.836 22.6098 48.825C22.3818 48.7374 20.6944 48.0102 20.2605 47.8021C19.912 47.6291 19.8791 47.3991 19.8572 47.1056C19.8572 47.0618 19.8572 46.4529 19.8791 45.5066C20.0961 29.1446 20.0632 29.0702 20.0216 28.9935C19.923 28.7767 19.6074 28.7219 19.4014 28.9169C19.3137 29.0045 17.8345 30.6012 15.0293 33.6568C10.2212 38.8742 2.18274 47.594 1.82552 47.8985C1.49899 48.1592 0.911659 48.4417 0.0964195 48.7462C0.0416319 48.7681 0.00876331 48.779 -0.00219421 48.79L-0.0350654 48.8119L-0.230103 48.8447V49.0397L-0.175328 49.4756L0.118339 49.4099H9.09255C9.27664 49.4099 9.43004 49.2894 9.441 49.1273C9.46291 48.9762 9.35334 48.8447 9.19117 48.8119C8.44167 48.6607 5.63436 48.0715 5.15662 47.9314C4.98349 47.8766 4.89583 47.8109 4.88487 47.7693C4.88487 47.7364 4.88487 47.6817 4.95061 47.6072C5.17853 47.2699 9.63824 41.7808 9.97573 41.5092C10.3351 41.2267 10.4535 41.1938 11.1613 41.1829C11.4002 41.1719 12.7283 41.1391 14.0432 41.1829C15.0337 41.2048 15.9892 41.2814 16.4801 41.3252C16.8614 41.3581 16.8724 41.5311 16.8724 41.8356V41.9123C16.8724 42.0218 16.8286 42.9987 16.7847 44.0216C16.73 45.2504 16.6642 46.6193 16.6532 47.0005C16.6423 47.6203 16.5765 47.6422 16.2171 47.7715C16.1843 47.7715 12.9102 48.825 12.8028 48.8907L12.5858 48.9783V49.1623C12.5858 49.2281 12.6296 49.3682 12.9123 49.4339H22.441C22.5287 49.4339 22.6032 49.412 22.6689 49.3682C22.7237 49.4011 22.7785 49.4339 22.8859 49.4339H31.7176C31.9675 49.4339 32.088 49.2916 32.1099 49.1733C32.1318 49.055 32.077 48.8907 31.871 48.8141C31.7943 48.7703 31.4459 48.652 30.6854 48.3782C30.0872 48.1613 29.445 47.9335 29.2281 47.8459C29.033 47.7693 28.9892 47.6948 29.0769 47.3246C29.0988 47.2261 32.6775 32.0622 32.8068 31.6482C32.9164 31.3328 33.0347 31.1379 33.427 30.9626C33.6221 30.875 33.9705 30.7568 34.2094 30.6801L34.4154 30.6144C34.5885 30.5596 36.0897 30.1259 36.2431 30.0931C36.4381 30.0274 36.482 29.8762 36.471 29.7777L36.4381 29.7229ZM17.0126 33.8977C17.0126 34.2241 16.9798 36.007 16.9579 37.4855C16.9359 38.5281 16.925 39.4306 16.925 39.5401C16.925 39.7569 16.925 39.9212 16.3486 39.9212H11.7267C11.455 39.9212 11.3673 39.8446 11.3564 39.8336C11.3564 39.8227 11.3564 39.735 11.4769 39.6277C11.6084 39.4656 13.2937 37.6608 14.6414 36.2042C15.9147 34.8352 16.6971 33.9853 16.7738 33.8999C16.8724 33.7794 16.9469 33.7378 16.9907 33.7159C16.9907 33.7488 17.0126 33.8035 17.0126 33.8999V33.8977Z" fill="white"/>
<path d="M53.2755 42.5496C53.0804 42.2999 52.732 42.2671 52.4602 42.2671H45.1735C44.9675 42.2671 44.8031 42.3876 44.7812 42.5496C44.7812 42.5934 44.7702 42.8212 45.0749 42.887C45.1516 42.9089 45.8046 43.0819 46.587 43.29C47.7616 43.6054 49.2299 44.0084 49.4907 44.0719C49.5236 44.0719 49.5674 44.1048 49.5893 44.1267C49.6222 44.1815 49.5784 44.3326 49.5565 44.3983L49.5346 44.475C49.5127 44.6064 48.8158 47.5086 48.7413 47.7255C48.6536 47.9423 48.6317 47.9861 48.3161 48.0847C48.0882 48.1613 47.1743 48.3672 45.8353 48.3234C42.0396 48.2249 39.2761 45.9097 38.8093 42.4204C38.233 38.3003 41.1696 33.4837 45.4978 31.473C47.2269 30.6691 49.2825 30.5487 50.3608 30.5487C51.5573 30.5487 52.4054 30.691 52.6772 30.7765C53.0585 30.8969 53.0804 31.0152 53.0804 31.5584C53.0804 31.7315 52.9818 34.1781 52.9182 35.4835C52.8854 36.1472 52.8635 36.6357 52.8635 36.6795C52.8635 36.778 52.8854 36.8635 52.9292 36.9401C53.0804 37.1789 53.4617 37.0913 53.5713 36.778C53.6371 36.616 55.4757 31.0809 55.4976 31.0262C55.5524 30.8203 55.6401 30.5049 55.4757 30.2113C55.3442 29.9836 55.1054 29.8302 54.7263 29.7338C52.9643 29.2783 50.5712 29.1797 49.7998 29.1797C44.4919 29.1797 40.74 31.8979 40.0431 32.4411C37.8034 34.2022 36.1269 36.6707 35.452 39.2356C34.7551 41.8224 35.1912 44.4005 36.6704 46.3236C37.8013 47.8021 40.076 49.5741 44.4262 49.5741H44.8623C48.0268 49.4865 51.2571 48.2051 51.279 48.1942C51.6494 48.0628 51.8773 47.8678 51.9759 47.5962C52.0745 47.3465 53.1615 43.8989 53.3675 43.2265C53.4442 42.9549 53.4113 42.738 53.2908 42.5628L53.2799 42.5518L53.2755 42.5496Z" fill="white"/>
<path d="M74.7808 48.8228C74.5529 48.7352 72.8654 48.008 72.4315 47.7999C72.0611 47.6269 72.0392 47.375 72.0282 47.0924C72.0282 46.961 72.0502 44.7334 72.083 42.1356C72.2562 29.1227 72.2255 29.0679 72.1816 28.9803C72.083 28.7635 71.7674 28.7087 71.5614 28.9037C71.4738 28.9913 70.1589 30.426 67.6233 33.1661C62.9905 38.1996 54.3538 47.5699 53.9505 47.8963C53.4728 48.2664 52.6027 48.6257 52.2762 48.7549C52.1885 48.7877 52.1337 48.8097 52.1337 48.8097C52.0022 48.8754 51.9277 49.0265 51.9606 49.1579C51.9935 49.3003 52.1119 49.3857 52.2653 49.3857H61.2395C61.4455 49.3857 61.566 49.2433 61.5879 49.1032C61.6098 48.952 61.5112 48.8206 61.349 48.7768C60.5338 48.6147 57.7703 48.0365 57.3145 47.8963C57.1414 47.8415 57.0537 47.7758 57.0427 47.7342C57.0208 47.6794 57.0646 47.6028 57.0866 47.5831C57.3035 47.2786 61.7961 41.7457 62.1117 41.4741C62.493 41.1916 62.6113 41.1587 63.3192 41.1478C63.5581 41.1368 64.8971 41.104 66.201 41.1478C67.2551 41.1697 68.2676 41.2573 68.638 41.2901C69.0193 41.323 69.0303 41.496 69.0303 41.8005V41.8772C69.0303 41.9867 68.9864 42.9526 68.9426 43.9865C68.8878 45.2153 68.822 46.5842 68.8111 46.9654C68.7892 47.5852 68.7344 47.6071 68.375 47.7364C68.3421 47.7364 65.068 48.779 64.9606 48.8556L64.7437 48.9323V49.1163C64.7437 49.182 64.7875 49.3222 65.0702 49.3879H74.5989C74.7939 49.3879 74.9473 49.2893 74.9802 49.1382C75.0131 49.0068 74.9364 48.8776 74.7961 48.8118L74.7852 48.8228H74.7808ZM69.1683 33.8977C69.1683 34.2241 69.1464 36.007 69.1245 37.4964C69.1135 38.5391 69.0916 39.4415 69.0916 39.551C69.0916 39.7459 69.0916 39.9321 68.5043 39.9321H63.8605C63.5888 39.9321 63.5011 39.8555 63.4901 39.8445C63.4901 39.8336 63.4901 39.7569 63.5997 39.6386C63.7312 39.4875 65.0899 38.0287 66.3961 36.6159C67.7022 35.2141 68.8221 34.0072 68.9097 33.9086C69.0193 33.7882 69.0938 33.7466 69.1267 33.7246C69.1267 33.7575 69.1486 33.8123 69.1486 33.9086L69.1683 33.8977Z" fill="white"/>
</g>
<path d="M91.9885 22.3726H98.4162L112.448 46.9528L126.437 22.3726H132.864V55.6616H126.207V36.3098L115.166 55.6616H109.694L98.6529 36.3098V55.6616H91.9951V22.3726H91.9841H91.9885Z" fill="white"/>
<path d="M148.983 31.3091C156.02 31.3091 159.404 34.4939 159.404 41.0058V55.7031H153.127V52.4745C151.604 54.8007 148.983 56.2354 145.796 56.2354C141.087 56.2354 137.758 53.1469 137.758 48.7662C137.758 44.6243 140.76 41.733 145.371 41.2971L151.887 40.732C152.746 40.6334 153.127 40.3509 153.127 39.7858V39.4046C153.127 37.8823 151.648 36.9799 148.983 36.9799C145.937 36.9799 143.796 38.1211 143.033 40.0683L138.367 36.7412C139.847 33.2738 143.598 31.3156 148.972 31.3156L148.983 31.3047V31.3091ZM147.221 45.8224C145.36 46.0611 144.273 47.0074 144.273 48.4421C144.273 50.0629 145.558 51.0617 147.657 51.0617C150.8 51.0617 153.129 48.8757 153.129 46.0721V45.1259L147.234 45.8443L147.223 45.8224H147.221Z" fill="white"/>
<path d="M164.255 25.0795C164.255 22.7534 165.963 21.0361 168.248 21.0361C170.534 21.0361 172.294 22.7424 172.294 25.0795C172.294 27.4166 170.587 29.0704 168.248 29.0704C165.91 29.0704 164.255 27.3641 164.255 25.0795ZM171.391 55.6613H165.114V31.885H171.391V55.6613Z" fill="white"/>
<path d="M177.286 31.8851H183.376V35.4949C185.182 32.7328 187.946 31.3091 191.132 31.3091C196.462 31.3091 199.508 34.7326 199.508 40.7671V55.6505H193.08V42.4755C193.08 39.0936 191.557 37.3435 188.653 37.3435C185.325 37.3435 183.563 39.7683 183.563 44.2913V55.6527H177.286V31.8764V31.8851Z" fill="white"/>
<path d="M215.824 31.3088C223.099 31.3088 227.57 36.2985 227.57 43.9625V45.6688H210.058L210.102 45.7674C210.862 48.9522 213.713 50.3343 216.475 50.3343C219.236 50.3343 221.565 49.3333 223.229 47.9096L225.85 53.0941C223.904 54.715 220.945 56.2351 216.387 56.2351C208.348 56.2351 203.639 50.8644 203.639 43.7764C203.639 36.6884 208.348 31.3176 215.821 31.3176V31.3066L215.824 31.3088ZM215.637 36.6358C212.635 36.6358 210.645 38.2019 210.025 41.1041H220.728C220.446 38.5392 218.684 36.6358 215.637 36.6358Z" fill="white"/>
</svg>
