<?xml version="1.0" encoding="UTF-8"?>
<svg id="Layer_1" xmlns="http://www.w3.org/2000/svg" version="1.1" viewBox="0 0 228 79">
  <!-- Generator: Adobe Illustrator 29.5.1, SVG Export Plug-In . SVG Version: 2.1.0 Build 141)  -->
  <defs>
    <style>
      .st0 {
        fill: #fff;
      }
    </style>
  </defs>
  <g>
    <path class="st0" d="M.011,0v48.784c.015-.01.038-.019.086-.038.815-.305,1.403-.587,1.729-.848.357-.305,8.396-9.024,13.204-14.242,2.805-3.056,4.284-4.652,4.372-4.74.206-.195.522-.14.62.077.042.077.075.151-.143,16.513-.022.946-.022,1.555-.022,1.599.022.294.055.523.403.697.434.208,2.121.935,2.349,1.023.022.011.022.033.033.033.022-.011.011-.033.033-.033.099-.044.675-.261,1.49-.554.401-.153.75-.272.815-.305.208-.088.609-.239.719-.565.088-.315,3.818-15.709,3.85-15.841.11-.436-.055-.554-.239-.62-.132-.055-.859-.304-1.501-.521-.826-.272-1.054-.348-1.087-.37-.195-.077-.25-.228-.228-.348.022-.118.132-.239.316-.239h9.257c.197,0,.348.109.37.261l.033.055c.011.099-.033.25-.228.315-.153.033-1.655.466-1.828.521l-.206.066c-.239.077-.587.195-.782.282-.392.175-.511.37-.62.686-.129.414-3.708,15.578-3.73,15.676-.088.37-.044.445.151.521.217.088.859.315,1.457.532.76.274,1.109.392,1.186.436.206.077.261.241.239.359-.022.118-.142.261-.392.261h-8.832c-.107,0-.162-.033-.217-.066-.066.044-.14.066-.228.066h-9.529c-.283-.066-.326-.206-.326-.272v-.184l.217-.088c.107-.066,3.382-1.119,3.414-1.119.359-.129.425-.151.436-.771.011-.381.077-1.75.132-2.979.044-1.023.088-2,.088-2.109v-.077c0-.304-.011-.477-.392-.51-.491-.044-1.446-.12-2.437-.142-1.315-.044-2.643-.011-2.882,0-.708.011-.826.044-1.186.326-.337.272-4.797,5.761-5.025,6.098-.066.075-.066.129-.066.162.011.042.099.107.272.162.478.14,3.285.729,4.035.88.162.033.272.164.25.315-.011.162-.164.283-.348.283H.118l-.108.024v28.841h78.316V0H.011ZM51.279,48.194c-.022.011-3.252,1.292-6.417,1.38h-.436c-4.35,0-6.625-1.772-7.756-3.25-1.479-1.923-1.915-4.501-1.218-7.088.675-2.565,2.351-5.033,4.591-6.794.697-.543,4.449-3.261,9.757-3.261.771,0,3.164.099,4.927.554.379.096.618.25.749.477.164.294.077.609.022.815-.022.055-1.861,5.59-1.926,5.752-.11.313-.491.401-.642.162-.044-.077-.066-.162-.066-.261,0-.044.022-.532.055-1.196.064-1.305.162-3.752.162-3.925,0-.543-.022-.661-.403-.782-.272-.086-1.12-.228-2.316-.228-1.078,0-3.134.12-4.863.924-4.328,2.011-7.265,6.827-6.688,10.947.467,3.489,3.23,5.805,7.026,5.903,1.339.044,2.253-.162,2.481-.239.316-.099.338-.142.425-.359.075-.217.771-3.119.793-3.251l.022-.077c.022-.066.066-.217.033-.272-.022-.022-.066-.055-.099-.055-.261-.063-1.729-.466-2.904-.782-.782-.208-1.435-.381-1.512-.403-.305-.066-.294-.294-.294-.337.022-.162.186-.283.392-.283h7.287c.272,0,.62.033.815.283l.004.002.011.011c.121.175.153.392.077.664-.206.672-1.293,4.12-1.392,4.37-.099.272-.326.467-.697.598ZM74.599,49.388h-9.529c-.283-.066-.326-.206-.326-.272v-.184l.217-.077c.107-.077,3.381-1.119,3.414-1.119.359-.129.414-.151.436-.771.011-.381.077-1.75.132-2.979.044-1.034.088-2,.088-2.109v-.077c0-.305-.011-.477-.392-.51-.37-.033-1.383-.12-2.437-.142-1.304-.044-2.643-.011-2.882,0-.708.011-.826.044-1.208.326-.316.272-4.808,5.805-5.025,6.109-.022.02-.066.096-.044.151.011.042.099.107.272.162.456.14,3.219.718,4.034.88.162.044.261.175.239.326-.022.14-.142.282-.348.282h-8.974c-.153,0-.272-.085-.305-.228-.033-.131.042-.282.173-.348,0,0,.055-.022.142-.055.327-.129,1.197-.488,1.674-.859.403-.326,9.04-9.697,13.673-14.73,2.536-2.74,3.851-4.175,3.938-4.262.206-.195.522-.14.62.077.044.088.075.142-.099,13.155-.033,2.598-.055,4.825-.055,4.957.011.283.033.534.403.708.434.208,2.121.935,2.349,1.023h.004l.011-.011c.14.066.217.195.184.326-.033.151-.186.25-.381.25Z"/>
    <path class="st0" d="M69.127,33.725c-.033.022-.107.064-.217.184-.088.099-1.208,1.306-2.514,2.707-1.306,1.413-2.665,2.872-2.796,3.023-.11.118-.11.195-.11.206.011.011.099.088.37.088h4.644c.587,0,.587-.186.587-.381,0-.109.022-1.012.033-2.055.022-1.489.044-3.272.044-3.599l-.02.011c0-.096-.022-.151-.022-.184Z"/>
    <path class="st0" d="M16.925,39.54c0-.109.011-1.012.033-2.055.022-1.476.055-3.256.055-3.586,0-.096-.022-.151-.022-.184-.044.022-.118.064-.217.184-.077.085-.859.935-2.132,2.304-1.348,1.457-3.033,3.261-3.164,3.423-.121.107-.121.195-.121.206.011.011.099.088.37.088h4.622c.576,0,.576-.164.576-.381Z"/>
  </g>
  <path class="st0" d="M91.989,22.373h6.428l14.032,24.58,13.989-24.58h6.427v33.289h-6.657v-19.352l-11.041,19.352h-5.472l-11.041-19.352v19.352h-6.658V22.373h-.011.004Z"/>
  <path class="st0" d="M148.983,31.309c7.037,0,10.421,3.185,10.421,9.697v14.697h-6.277v-3.229c-1.523,2.326-4.144,3.761-7.331,3.761-4.709,0-8.038-3.089-8.038-7.469,0-4.142,3.002-7.033,7.613-7.469l6.516-.565c.859-.099,1.24-.381,1.24-.946v-.381c0-1.522-1.479-2.425-4.144-2.425-3.046,0-5.187,1.141-5.95,3.088l-4.666-3.327c1.48-3.467,5.231-5.426,10.605-5.426l.011-.011v.004ZM147.221,45.822c-1.861.239-2.948,1.185-2.948,2.62,0,1.621,1.285,2.62,3.384,2.62,3.143,0,5.472-2.186,5.472-4.99v-.946l-5.895.718-.011-.022h-.002Z"/>
  <path class="st0" d="M164.255,25.08c0-2.326,1.708-4.043,3.993-4.043s4.046,1.706,4.046,4.043-1.707,3.991-4.046,3.991-3.993-1.706-3.993-3.991ZM171.391,55.661h-6.277v-23.776h6.277v23.776Z"/>
  <path class="st0" d="M177.286,31.885h6.09v3.61c1.806-2.762,4.57-4.186,7.756-4.186,5.33,0,8.376,3.424,8.376,9.458v14.883h-6.428v-13.175c0-3.382-1.523-5.132-4.427-5.132-3.328,0-5.09,2.425-5.09,6.948v11.361h-6.277v-23.776.009Z"/>
  <path class="st0" d="M215.824,31.309c7.275,0,11.746,4.99,11.746,12.654v1.706h-17.512l.044.099c.76,3.185,3.611,4.567,6.373,4.567s5.09-1.001,6.754-2.425l2.621,5.185c-1.946,1.621-4.905,3.141-9.463,3.141-8.039,0-12.748-5.371-12.748-12.459s4.709-12.459,12.182-12.459v-.011l.003.002ZM215.637,36.636c-3.002,0-4.992,1.566-5.612,4.468h10.703c-.282-2.565-2.044-4.468-5.091-4.468Z"/>
</svg>