<svg width="1440" height="1081" viewBox="0 0 1440 1081" fill="none" xmlns="http://www.w3.org/2000/svg">
<path d="M-340 411.078C-330.21 316.141 -300.629 212.362 -218.716 163.347C-71.0489 74.9907 121.011 248.246 27.8737 400.368C-4.97339 454.015 -70.4318 499.643 -58.3981 561.385C-51.6031 596.251 -19.5066 621.782 14.7043 631.385C48.9151 640.987 85.2521 637.663 120.607 634.115C166.757 629.483 214.2 624.21 255.131 602.396C296.062 580.582 329.428 538.046 326.359 491.773C321.8 423.125 247.063 384.204 208.997 326.891C158.276 250.521 185.558 133.809 264.882 87.8231C344.201 41.8374 459.08 76.142 500.18 158.082C541.284 240.027 500.07 352.583 415.767 388.632C371.114 407.727 320.511 406.753 273.881 420.316C227.252 433.879 180.166 471.798 183.919 520.204C186.965 559.471 223.149 589.01 260.873 600.353C298.597 611.696 338.856 609.677 378.019 613.944C417.182 618.211 458.659 630.901 481.811 662.766C515.759 709.49 493.322 781.027 445.989 814.125C398.656 847.228 335.544 848.787 279.14 836.328C222.736 823.869 169.881 798.994 114.44 782.779C58.9995 766.568 -2.33237 759.527 -55.3287 782.496C-108.325 805.466 -147.952 866.118 -131.284 921.412C-112.353 984.21 -31.4735 1009.84 31.5562 991.648C94.5859 973.456 143.322 924.669 189.453 878.035C235.583 831.401 285.259 783.227 348.799 766.906C421.167 748.313 496.478 774.556 570.807 782.178C645.135 789.8 735.848 766.851 758.666 695.719C775.793 642.339 746.537 585.599 713.329 540.427C680.12 495.255 640.439 450.499 632.995 394.934C620.836 304.133 699.916 226.075 782.112 185.578C857.097 148.633 947.444 129.392 1023.8 163.41C1100.16 197.428 1147.47 299.753 1101.66 369.662C1064.48 426.402 978.303 452.275 971.182 519.729C966.819 561.055 996.648 598.188 1029.16 624.081C1061.67 649.977 1099.53 670.986 1122.91 705.349C1161.01 761.37 1145.52 846.748 1090.16 885.811C1034.79 924.874 949.138 910.87 909.107 856.209C866.6 798.165 876.641 713.306 833.218 655.941C794.574 604.887 714.987 590.825 661.185 625.55C607.379 660.275 587.427 738.569 618.057 794.802C640.659 836.297 686.746 867.6 689.682 914.76C692.783 964.573 641.445 1004.27 591.588 1006.83C541.732 1009.4 494.721 985.393 451.302 960.758C407.883 936.122 363.148 909.503 313.347 906.022C263.545 902.545 207.393 931.003 198.453 980.104C187.445 1040.56 259.604 1092.14 319.364 1077.78C379.124 1063.43 419.057 1004.38 432.446 944.413C445.836 884.444 438.522 822.113 437.017 760.686C435.512 699.259 441.025 634.28 475.865 583.658C515.562 525.972 592.536 496.771 660.517 513.607C728.499 530.443 782.937 592.188 791.112 661.729C799.392 732.185 764.325 803.611 778.622 873.096C789.123 924.131 826.101 967.323 871.489 992.937C916.876 1018.55 969.928 1028.02 1022.04 1028.35C1128.82 1029.02 1240.14 988.296 1304.11 902.824C1368.08 817.347 1370.81 684.498 1294.8 609.523C1255.67 570.928 1202.2 551.263 1150.56 532.447C1098.92 513.631 1045.54 493.447 1007.08 454.184C968.627 414.921 949.724 350.803 978.326 303.878C1023.23 230.212 1148.12 242.255 1192.22 168.109C1223.83 114.965 1190.85 39.8885 1134.71 13.9646C1078.56 -11.9593 1010.09 3.46617 959.042 38.368C907.991 73.2698 871.135 124.933 837.199 176.624C803.263 228.314 770.522 281.895 724.769 323.492C676.045 367.792 611.726 397.024 545.886 395.449C480.046 393.873 413.955 358.48 383.443 300.13C352.93 241.779 364.425 162.11 415.461 120.497C484.601 64.1151 590.897 93.0959 661.975 147.018C733.054 200.941 787.441 276.135 864.391 321.284C956.401 375.269 1076.24 378.377 1170.93 329.236C1219.85 303.847 1261.15 266.297 1303.24 230.723C1345.34 195.149 1389.91 160.542 1442.1 142.818C1494.3 125.094 1556 126.815 1600.08 159.909C1644.15 193.004 1661.81 261.833 1628.8 305.96C1591.76 355.467 1515.35 352.752 1458.41 328.627C1401.47 304.507 1350.77 264.191 1290.15 251.991C1229.53 239.787 1152.11 273.047 1149.9 334.831C1147.9 390.553 1208.03 429.675 1263.49 435.494C1318.96 441.309 1375.05 426.253 1430.51 432.178C1485.96 438.106 1545.98 477.531 1543.65 533.241C1536.29 708.976 1177.5 563.432 1198.37 744.938C1203.73 791.549 1254.37 820.978 1301.24 823.359C1348.11 825.736 1393.58 809.131 1439.82 801.12C1486.06 793.109 1539.14 795.843 1572.18 829.158C1608.17 865.431 1604.79 924.536 1580.37 966.608C1558.13 1004.94 1520.04 1032.06 1479.18 1049.27C1378.27 1091.76 1255.05 1075.82 1168.29 1009.03C1081.53 942.252 1034.6 827.244 1049.88 718.842C1060.23 645.49 1096.48 570.771 1072.54 500.669C1055.08 449.536 1007.14 412.788 955.061 398.333C902.984 383.878 847.28 389.08 794.688 401.527C751.383 411.774 707.815 427.691 675.789 458.589C643.763 489.483 625.839 538.223 641.453 579.886C654.874 615.696 690.153 639.71 727.1 649.6C764.046 659.489 806.219 639.844 841.192 655.328C987.723 720.213 1087.35 641.687 1210.42 634.87C1273.01 631.4 1342.47 630.119 1390.07 670.887C1427.8 703.196 1442.75 757.028 1435.68 806.189C1428.61 855.345 1401.99 899.995 1368.57 936.735C1301.22 1010.79 1203.77 1056.64 1103.76 1061.33C1003.77 1066.02 902.449 1029.49 828.459 962.07C777.545 915.676 728.157 850.693 659.393 854.846C603.005 858.249 562.137 908.061 529.258 953.988C496.38 999.915 457.221 1050.45 401.061 1056.54C336.88 1063.49 284.21 1009.68 241.136 961.599C198.067 913.519 140.956 862.264 77.8911 876.075C41.507 884.043 13.596 912.269 -12.7116 938.625C-39.0192 964.981 -68.6751 992.1 -105.637 996.701C-207.487 1009.38 -222.41 868.716 -196.098 804.063C-175.725 753.995 -135.089 714.579 -90.3374 684.246C-45.8063 654.059 3.88884 631.224 44.6903 596.165C85.4918 561.106 117.353 508.998 109.296 455.819C98.6103 385.268 26.793 344.006 -34.7787 307.913C-96.3503 271.821 -162.681 214.688 -151.206 144.264C-141.86 86.9233 -79.3294 49.4794 -21.2751 52.1079C36.7753 54.7365 89.0956 88.3338 131.685 127.86C174.271 167.386 210.29 213.777 254.746 251.189C299.203 288.602 355.532 317.229 413.35 311.402C555.593 297.065 614.449 97.6457 753.989 66.5315C826.313 50.4066 901.223 85.8625 956.971 134.669C1012.71 183.476 1055.34 245.402 1107.87 297.654C1160.4 349.907 1228.34 393.932 1302.41 391.81C1376.48 389.689 1450.84 324.647 1440.17 251.335C1435.82 221.391 1418.89 195.027 1407.17 167.127C1395.45 139.227 1389.43 105.343 1405.97 80.0042C1433.01 38.5802 1496 48.7368 1541.75 67.5963C1602.54 92.6637 1669.38 139.62 1663.72 205.121C1659.13 258.242 1609.02 293.352 1568.31 327.798C1525.94 363.659 1490.44 418.359 1520.28 472.651C1546.32 520.055 1606.28 548.391 1614.2 605.799C1622.3 664.448 1566.67 709.396 1534.93 759.382C1490.79 828.895 1493.65 925.176 1541.83 991.951C1590.01 1058.72 1680.49 1091.82 1760.39 1071.88" stroke="black" stroke-width="1.51579" stroke-miterlimit="10"/>
</svg>
