<svg width="346" height="55" viewBox="0 0 346 55" fill="none" xmlns="http://www.w3.org/2000/svg">
<path d="M0 34.9356C0 47.1696 7.08741 54.0379 18.6566 54.0379H60.3994V15.6724H18.1876C7.45223 15.6724 0 22.7552 0 34.9356ZM49.5067 24.9552V44.755H19.5425C14.5396 44.755 11.048 41.4282 11.048 34.9356C11.048 28.604 14.3312 24.9552 19.5425 24.9552H49.5067Z" fill="white"/>
<path d="M60.3994 0H49.5076V11.2145H60.3994V0Z" fill="white"/>
<path d="M65.5156 54.074H76.4073V38.5121H120.452V30.0352H76.4073V24.8336H123.414V15.7085H65.5156V54.074Z" fill="white"/>
<path d="M142.656 30.3931H161.6V36.0295H155.295V53.0336H148.867V36.0295H142.655V30.3931H142.656Z" fill="white"/>
<path d="M163.676 30.3931H170.104L171.703 38.1515C172.226 40.6207 172.78 44.453 172.78 44.453H172.841C172.841 44.453 173.426 41.0653 173.979 38.4682L175.671 30.3931H181.484L183.174 38.4049C183.728 41.0324 184.282 44.4517 184.282 44.4517H184.343C184.343 44.4517 184.928 40.6206 185.449 38.0881L187.049 30.3931H193.63L187.85 53.0336H181.361L179.392 43.4395C178.993 41.4758 178.624 39.0383 178.624 39.0383H178.562C178.562 39.0383 178.192 41.4758 177.794 43.4395L175.887 53.0336H169.305L163.677 30.3931H163.676Z" fill="white"/>
<path d="M196.143 30.3931H213.271V35.7761H202.57V38.8483H211.518V43.8195H202.57V47.3668H213.579V53.0349H196.143V30.3943V30.3931Z" fill="white"/>
<path d="M217.381 30.3931H223.808L231.005 43.1227H231.067V30.3931H237.279V53.0336H230.636L223.656 40.2102H223.593V53.0336H217.382L217.381 30.3931Z" fill="white"/>
<path d="M240.059 30.3931H259.002V36.0295H252.697V53.0336H246.27V36.0295H240.057V30.3931H240.059Z" fill="white"/>
<path d="M268.657 45.0864L261.124 30.3931H268.105L270.441 35.4289C271.24 37.1392 271.917 39.07 271.917 39.07H271.978C271.978 39.07 272.686 37.1392 273.486 35.4289L275.823 30.3931H282.65L275.085 45.0864V53.0336H268.657V45.0864Z" fill="white"/>
<path d="M295.306 30.3931H300.632L292.81 53.064H287.484L295.306 30.3931Z" fill="white"/>
<path d="M308.802 46.5976C310.866 44.6631 313.913 42.6335 316.224 41.017C317.394 40.1922 318.071 39.3041 318.071 38.131C318.071 36.7666 317.21 35.8798 315.546 35.8798C314.53 35.8798 313.821 36.1648 313.329 36.8312C312.774 37.5609 312.528 38.3844 312.528 39.8109H306.737C306.737 37.2429 306.985 36.1331 307.785 34.6737C308.956 32.5187 311.635 30.9009 315.668 30.9009C321.274 30.9009 324.137 33.9148 324.137 37.8776C324.137 39.8109 323.613 41.3654 322.412 42.5702C320.318 44.6631 317.638 45.9312 315.39 47.7707V47.8341H324.013V53.065H306.398C306.398 49.9574 307.013 48.2775 308.8 46.5976H308.802Z" fill="white"/>
<path d="M327.308 42.2534C327.308 38.9874 328.109 36.0381 329.833 34.0086C331.496 32.0436 333.991 30.9009 337.131 30.9009C341.689 30.9009 344.676 33.1217 345.476 36.9262H339.564C339.287 36.0698 338.701 35.2134 337.131 35.2134C335.037 35.2134 333.652 36.8628 333.343 39.9705H333.404C334.574 38.829 336.022 38.0993 338.148 38.0993C342.367 38.0993 346 41.0474 346 45.7729C346 50.5287 342.367 53.5731 337.101 53.5731C330.757 53.5731 327.308 49.2923 327.308 42.2534ZM340.15 45.7729C340.15 43.9017 338.856 42.5068 336.885 42.5068C334.945 42.5068 333.621 43.9017 333.621 45.7729C333.621 47.644 334.946 49.0389 336.885 49.0389C338.856 49.0389 340.15 47.6428 340.15 45.7729Z" fill="white"/>
</svg>
