<svg width="389" height="51" viewBox="0 0 389 51" fill="none" xmlns="http://www.w3.org/2000/svg">
<path d="M0 32.1146C0 43.3607 6.7071 49.6744 17.6555 49.6744H57.1584V14.4067H17.2116C7.05234 14.4067 0 20.9177 0 32.1146ZM46.8502 22.94V41.1411H18.4939C13.7594 41.1411 10.4552 38.0829 10.4552 32.1146C10.4552 26.2942 13.5622 22.94 18.4939 22.94H46.8502Z" fill="black"/>
<path d="M71.9762 35.3207H86.3274V27.5766H71.9772V22.7921H89.1385V14.4067H61.6689V49.6744H89.6317V40.8452H71.9762V35.3207Z" fill="black"/>
<path d="M112.023 27.4781C106.746 26.1956 103.737 25.8997 103.737 23.828C103.737 22.3976 105.316 21.3617 107.584 21.3617C110.395 21.3617 111.776 22.5949 112.072 24.5186H122.281C122.133 16.8238 115.426 13.7656 108.127 13.7656C100.187 13.7656 93.5782 16.8238 93.5782 24.9132C93.5782 32.4106 100.729 34.433 106.647 35.9127C110.987 36.9979 113.354 37.5405 113.354 39.6615C113.354 41.7825 110.888 42.5717 108.866 42.5717C105.464 42.5717 103.294 41.2399 102.948 38.4283H92.3945C92.5425 46.567 99.4962 50.5131 108.669 50.5131C117.004 50.5131 123.859 46.419 123.859 38.7243C123.859 31.2268 117.941 28.9085 112.023 27.4781Z" fill="black"/>
<path d="M178.748 37.8364H183.433C182.792 40.204 180.967 42.2264 177.219 42.2264C172.238 42.2264 169.378 37.9351 169.378 32.164C169.378 26.3929 171.893 22.2496 176.824 22.2496C179.5 22.077 181.931 23.8073 182.644 26.3929H192.606C191.472 18.5502 185.652 13.7656 176.43 13.7656C165.531 13.7656 158.922 21.7563 158.922 32.164C158.922 37.6391 160.55 42.3744 163.805 45.8271C166.85 48.9613 171.077 50.663 175.444 50.5131C179.734 50.5131 183.334 49.1319 185.554 45.9258H185.652L186.441 49.6745H193.296V30.5363H178.748V37.8364Z" fill="black"/>
<path d="M219.089 34.2356H218.99L207.451 14.4067H197.143V49.6744H207.105V29.6976H207.204L218.398 49.6744H229.051L229.052 14.4067H219.089V34.2356Z" fill="black"/>
<path d="M57.1583 0H46.8511V10.309H57.1583V0Z" fill="black"/>
<path d="M136.599 14.4067H126.562V21.3123H136.599V40.8244H126.562V49.6744H136.599H146.906H156.942V40.8244H146.906V21.3123H156.942V14.4067H146.906H136.599Z" fill="black"/>
<path d="M233.554 49.6744H243.861V35.3691H285.543V27.5766H243.861V22.795H288.345V14.4067H233.554V49.6744Z" fill="black"/>
<path d="M303.177 35.3207H317.53V27.5766H303.177V22.7921H320.341V14.4067H292.871V49.6744H320.834V40.8452H303.177V35.3207Z" fill="black"/>
<path d="M343.223 27.4781C337.946 26.1956 334.938 25.8997 334.938 23.828C334.938 22.3976 336.516 21.3617 338.784 21.3617C341.595 21.3617 342.976 22.5949 343.272 24.5186H353.481C353.333 16.8238 346.626 13.7656 339.327 13.7656C331.387 13.7656 324.778 16.8238 324.778 24.9132C324.778 32.4106 331.929 34.433 337.847 35.9127C342.187 36.9979 344.554 37.5405 344.554 39.6615C344.554 41.7825 342.089 42.5717 340.067 42.5717C336.664 42.5717 334.494 41.2399 334.149 38.4283H323.595C323.743 46.567 330.696 50.5131 339.869 50.5131C348.204 50.5131 355.059 46.419 355.059 38.7243C355.059 31.2268 349.141 28.9085 343.223 27.4781Z" fill="black"/>
<path d="M388.142 14.4067H378.106H367.799H357.763V21.3123H367.799V49.6744H378.106V21.3123H388.142V14.4067Z" fill="black"/>
</svg>
