<svg width="939" height="525" viewBox="0 0 939 525" fill="none" xmlns="http://www.w3.org/2000/svg">
<g clip-path="url(#clip0_81_537)">
<path d="M229.315 320.424H274.001V333.32H259.129V372.223H243.967V333.32H229.312L229.315 320.424Z" fill="white"/>
<path d="M278.897 320.425H294.06L297.833 338.175C299.066 343.824 300.373 352.592 300.373 352.592H300.518C300.518 352.592 301.896 344.842 303.202 338.9L307.193 320.425H320.904L324.892 338.755C326.198 344.766 327.504 352.589 327.504 352.589H327.65C327.65 352.589 329.028 343.824 330.259 338.03L334.032 320.425H349.557L335.921 372.224H320.614L315.97 350.273C315.03 345.781 314.159 340.204 314.159 340.204H314.011C314.011 340.204 313.14 345.781 312.2 350.273L307.701 372.224H292.176L278.897 320.425Z" fill="white"/>
<path d="M355.484 320.425H395.889V332.74H370.646V339.769H391.753V351.143H370.646V359.259H396.614V372.227H355.484V320.428V320.425Z" fill="white"/>
<path d="M405.58 320.425H420.742L437.718 349.549H437.864V320.425H452.518V372.224H436.848L420.382 342.885H420.234V372.224H405.583L405.58 320.425Z" fill="white"/>
<path d="M459.074 320.425H503.76V333.32H488.888V372.224H473.726V333.32H459.072V320.425H459.074Z" fill="white"/>
<path d="M526.535 354.039L508.764 320.422H525.232L530.744 331.943C532.628 335.856 534.224 340.274 534.224 340.274H534.369C534.369 340.274 536.038 335.856 537.925 331.943L543.439 320.422H559.542L541.698 354.039V372.221H526.535V354.039Z" fill="white"/>
<path d="M589.376 320.425H601.923L583.499 372.224H570.948L589.376 320.425Z" fill="white"/>
<path d="M624.13 357.444C628.991 353.027 636.172 348.389 641.611 344.694C644.368 342.813 645.965 340.781 645.965 338.102C645.965 334.99 643.936 332.961 640.015 332.961C637.623 332.961 635.954 333.616 634.793 335.134C633.487 336.801 632.907 338.685 632.907 341.946H619.271C619.271 336.079 619.849 333.543 621.738 330.21C624.493 325.283 630.805 321.587 640.308 321.587C653.511 321.587 660.256 328.468 660.256 337.526C660.256 341.943 659.023 345.494 656.196 348.244C651.262 353.027 644.952 355.922 639.655 360.128V360.273H659.969V372.226H618.473C618.473 365.128 619.924 361.285 624.13 357.444Z" fill="white"/>
<path d="M665.963 356.937H680.109C680.904 360.412 683.952 362.299 687.58 362.299C691.861 362.299 694.543 359.401 694.543 354.691C694.543 350.415 691.858 347.52 687.504 347.52C684.895 347.52 682.573 348.752 681.409 350.488H667.988L673.285 322.596H705.636V333.969H683.946L682.35 340.926H682.495C683.946 339.546 687.063 338.097 691.492 338.097C701.793 338.097 708.974 344.618 708.974 354.833C708.974 366.493 700.922 373.45 687.937 373.45C676.258 373.45 667.26 368.45 665.957 356.934L665.963 356.937Z" fill="white"/>
<path d="M129.033 125.055C129.033 158.098 148.77 176.648 180.987 176.648H297.229V73.0273H179.681C149.786 73.0273 129.033 92.1573 129.033 125.055ZM266.896 98.0992V151.576H183.454C169.522 151.576 159.799 142.591 159.799 125.055C159.799 107.954 168.942 98.0992 183.454 98.0992H266.896Z" fill="white"/>
<path d="M340.833 134.475H383.063V111.722H340.833V97.6645H391.335V73.0273H310.502V176.648H392.786V150.707H340.833V134.475Z" fill="white"/>
<path d="M458.671 111.433C443.143 107.664 434.291 106.795 434.291 100.708C434.291 96.5053 438.935 93.4619 445.61 93.4619C453.882 93.4619 457.946 97.085 458.816 102.737H488.856C488.421 80.1289 468.685 71.1436 447.207 71.1436C423.842 71.1436 404.396 80.1289 404.396 103.896C404.396 125.925 425.438 131.867 442.853 136.215C455.624 139.403 462.589 140.997 462.589 147.229C462.589 153.461 455.333 155.779 449.383 155.779C439.37 155.779 432.985 151.866 431.969 143.606H400.913C401.348 167.518 421.81 179.112 448.803 179.112C473.328 179.112 493.5 167.083 493.5 144.475C493.5 122.447 476.086 115.635 458.671 111.433Z" fill="white"/>
<path d="M655.02 141.867H668.807C666.92 148.823 661.551 154.765 650.522 154.765C635.864 154.765 627.447 142.156 627.447 125.2C627.447 108.244 634.849 96.0705 649.361 96.0705C657.238 95.5633 664.387 100.647 666.485 108.244H695.8C692.462 85.2012 675.337 71.1436 648.2 71.1436C616.128 71.1436 596.682 94.6213 596.682 125.2C596.682 141.287 601.471 155.2 611.049 165.344C620.008 174.553 632.448 179.553 645.297 179.112C657.923 179.112 668.517 175.054 675.047 165.634H675.337L677.659 176.648H697.831V120.418H655.02V141.867Z" fill="white"/>
<path d="M773.73 73.0273V131.287H773.443L739.481 73.0273H709.151V176.648H738.465V117.954H738.756L771.701 176.648H803.044V73.0273H773.73Z" fill="white"/>
<path d="M297.229 30.6807H266.899V60.9698H297.229V30.6807Z" fill="white"/>
<path d="M530.991 73.0273H501.459V93.3168H530.991V150.643H501.459V176.648H530.991H561.321H590.854V150.643H561.321V93.3168H590.854V73.0273H561.321H530.991Z" fill="white"/>
<path d="M135.956 293.605H166.286V251.574H288.94V228.679H166.286V214.63H297.186V189.984H135.956V293.605Z" fill="white"/>
<path d="M340.833 251.432H383.063V228.679H340.833V214.622H391.335V189.984H310.502V293.605H392.786V267.664H340.833V251.432Z" fill="white"/>
<path d="M458.671 228.39C443.143 224.622 434.291 223.752 434.291 217.665C434.291 213.462 438.935 210.419 445.61 210.419C453.882 210.419 457.946 214.042 458.816 219.694H488.856C488.421 197.086 468.685 188.101 447.207 188.101C423.842 188.101 404.396 197.086 404.396 220.853C404.396 242.882 425.438 248.824 442.853 253.172C455.624 256.36 462.589 257.954 462.589 264.186C462.589 270.418 455.333 272.736 449.383 272.736C439.37 272.736 432.985 268.823 431.969 260.563H400.913C401.348 284.475 421.81 296.069 448.803 296.069C473.328 296.069 493.5 284.041 493.5 261.432C493.5 239.404 476.086 232.592 458.671 228.39Z" fill="white"/>
<path d="M530.991 189.984H501.459V210.274H530.991V293.605H561.321V210.274H590.854V189.984H561.321H530.991Z" fill="white"/>
<path d="M838.146 497.85C837.009 495.908 834.513 495.302 832.568 496.386C813.859 504.797 792.747 511.22 772.174 506.826C792.024 499.053 781.587 476.302 772.041 464.181C763.287 452.207 751.027 437.097 752.951 463.656C751.953 481.438 746.386 509.71 724.528 511.009C708.8 509.035 712.166 488.983 707.415 478.024C699.61 463.085 687.351 481.751 682.501 489.58C680.24 479.085 677.86 461.572 663.768 462.343C656.878 463.601 649.201 467.053 645.718 473.442C642.258 458.827 621.773 479.966 616.845 485.221C611.832 490.421 599.854 510.991 592.665 500.119C591.167 494.287 596.693 477.83 585.841 480.795C579.581 487.618 575.505 497.128 566.839 501.655C557.481 506.907 543.5 501.705 544.464 489.737C544.438 481.563 544.809 473.363 545.785 465.247C551.386 464.833 556.988 464.442 562.584 463.952C570.624 463.271 578.658 462.537 586.694 461.795C594.908 461.03 603.125 460.285 611.324 459.358C613.536 459.108 615.103 456.923 614.807 454.764C614.523 447.694 594.183 454.036 588.642 453.427C574.78 454.726 560.906 455.929 547.024 457.004C547.985 451.555 549.23 446.161 550.884 440.865C556.611 424.947 545.007 420.591 542.624 433.744C541.213 440.819 539.602 449.196 537.382 457.752C529.032 458.314 519.692 458.833 511.115 459.265C506.869 459.972 498.281 457.848 498.562 464.416C499.877 470.259 507.226 467.01 511.431 467.407C519.303 467.018 527.168 466.558 535.028 466.039C529.116 485.053 519.518 503.174 501.673 508.105C495.976 509.154 487.074 508.675 485.577 501.766L485.643 501.85C485.408 495.606 492.545 494.577 496.786 491.864C504.123 489.241 501.668 479.867 493.956 482.453C485.379 485.401 479.659 493.079 471.54 497.119C460.085 505.093 444.086 509.023 430.825 503.554C438.758 499.064 446.832 481.737 433.553 479.325C423.392 479.372 414.74 491.325 418.249 500.986C397.473 506.345 393.88 493.218 383.269 480.047C370.983 468.847 353.655 481.314 344.812 491.258C344.429 479.566 343.857 454.743 328.303 473.578C320.867 481.757 313.567 490.076 307.707 499.484C301.252 450.346 275.899 465.705 253.783 495.36C253.228 479.798 248.37 453.506 227.861 469.233C222.988 465.369 199.458 484.276 193.56 487.719C177.251 497.589 151.466 531.742 133.074 509.516C133.074 509.505 132.807 509.049 132.56 508.58C132.275 507.974 132.035 507.345 131.834 506.707C128.148 486.166 150.72 465.743 170.509 466.143L170.5 466.082C185.88 475.015 181.974 445.726 148.889 463.688C123.89 475.726 107.75 520.435 146.065 525.003C168.445 524.753 183.094 503.507 200.834 492.551C185.242 511.342 208.302 532.779 221.682 511.826C227.832 497.212 218.164 478.314 239.375 472.72C246.088 477.879 244.367 490.531 245.891 498.348C246.669 510.415 256.923 506.287 261.463 498.887C269.2 490.354 276.709 477.812 288.76 475.691C300.233 478.294 297.226 506.435 303.063 511.194C310.22 514.026 313.979 503.826 317.575 499.38C322.869 491.45 329.275 484.833 335.649 477.583C337.654 484.407 333.132 505.371 345.061 502.386C349.363 499.812 351.719 494.829 355.739 491.786C361.205 487.835 368.632 481.688 375.685 484.557C380.485 487.508 382.343 493.003 385.57 497.348C393.186 509.658 410.05 513.136 423.032 507.945C438.888 519.823 462.592 513.615 477.551 502.925C479.638 516.574 497.003 519.014 507.919 514.838C521.654 510.174 530.181 497.102 536.262 484.664C533.168 516.516 569.431 519.855 584.288 496.415C582.817 506.589 592.708 514.42 602.246 510.386C616.737 504.183 622.104 486.934 635.821 479.311C618.273 521.629 677.868 516.87 653.204 476.717C656.376 473.221 661.986 469.581 666.903 470.876L666.784 470.882C673.227 476.647 673.178 487.027 675.187 494.98C681.627 514.357 692.842 485.253 699.683 480.789C703.596 491.293 702.255 504.241 710.532 512.881C724.275 526.991 745.065 515.261 752.104 500.047C758.774 489.001 760.312 475.957 761.116 463.323C770.201 475.47 787.682 497.206 762.053 501.525C757.154 501.273 750.603 503.076 754.629 509.105C759.546 513.252 766.601 513.919 772.72 515.212C787.455 518.029 802.325 515.8 816.433 511.128C821.573 508.707 841.818 505.844 838.138 497.844L838.146 497.85ZM210.885 511.704C210.415 511.896 209.942 512.075 209.431 512.093C208.502 512.104 207.62 511.902 206.743 511.557C197.539 505.145 212.226 491.43 216.751 485.708C214.815 493.974 219.194 506.357 210.885 511.704ZM425.63 497.247C425.389 495.334 425.952 493.487 427.023 491.873C428.271 490.183 430.346 488.128 432.503 487.528C432.062 491.65 428.875 494.957 425.63 497.247ZM640.929 496.853C640.964 496.951 640.999 497.05 641.034 497.151C641.016 497.116 640.993 497.082 640.976 497.047C640.996 497.061 640.961 496.954 640.929 496.853ZM646.479 500.989C644.917 500.893 643.451 500.195 642.348 499.093C641.875 498.626 641.507 498.055 641.199 497.453C638.845 490.734 643.419 483.914 645.068 477.496C646.58 483.198 657 498.876 646.479 500.989Z" fill="#B7A0EA"/>
<path d="M594.69 443.683C596.917 443.683 598.765 441.822 598.765 439.605C598.765 437.387 596.914 435.526 594.69 435.526C592.467 435.526 590.615 437.387 590.615 439.605C590.615 441.822 592.467 443.683 594.69 443.683Z" fill="#B7A0EA"/>
</g>
<defs>
<clipPath id="clip0_81_537">
<rect width="939" height="525" fill="white"/>
</clipPath>
</defs>
</svg>
