<svg width="312" height="47" viewBox="0 0 312 47" fill="none" xmlns="http://www.w3.org/2000/svg">
<g clip-path="url(#clip0_621_229)">
<path d="M40.9932 4.64258H58.6402V9.87061H52.6714V41.2388H46.962V9.87061H40.9932V4.64258Z" fill="white"/>
<path d="M66.8407 41.2388H61.1313V4.64258H66.8407V20.3267H73.3286V4.64258H79.1417V41.2388H73.3286V25.5547H66.8407V41.2388Z" fill="white"/>
<path d="M89.0033 20.0653H96.8407V25.2933H89.0033V36.0108H98.8649V41.2388H83.2939V4.64258H98.8649V9.87061H89.0033V20.0653Z" fill="white"/>
<path d="M116.139 20.9018H123.509V26.1298H116.139V41.2388H110.429V4.64258H125.533V9.87061H116.139V20.9018Z" fill="white"/>
<path d="M127.816 13.4257C127.816 10.4667 128.564 8.18725 130.048 6.60839C131.533 5.01907 133.681 4.23486 136.484 4.23486C139.287 4.23486 141.436 5.02952 142.92 6.60839C144.405 8.19771 145.152 10.4667 145.152 13.4257V32.4558C145.152 35.4148 144.405 37.6943 142.92 39.2731C141.436 40.852 139.287 41.6467 136.484 41.6467C133.681 41.6467 131.533 40.852 130.048 39.2731C128.564 37.6838 127.816 35.4148 127.816 32.4558V13.4257ZM133.526 32.8217C133.526 34.1497 133.796 35.0802 134.325 35.6135C134.865 36.1572 135.581 36.4186 136.474 36.4186C137.367 36.4186 138.093 36.1468 138.623 35.6135C139.162 35.0698 139.422 34.1392 139.422 32.8217V13.0598C139.422 11.7319 139.152 10.8013 138.623 10.268C138.083 9.7243 137.367 9.45244 136.474 9.45244C135.581 9.45244 134.854 9.7243 134.325 10.268C133.785 10.8117 133.526 11.7423 133.526 13.0598V32.8217Z" fill="white"/>
<path d="M154.287 4.64258V32.8739C154.287 34.2019 154.557 35.122 155.086 35.6448C155.626 36.1676 156.342 36.429 157.235 36.429C158.128 36.429 158.854 36.1676 159.384 35.6448C159.924 35.122 160.183 34.2019 160.183 32.8739V4.64258H165.581V32.508C165.581 35.467 164.865 37.7465 163.432 39.3253C162 40.9147 159.882 41.6989 157.079 41.6989C154.277 41.6989 152.159 40.9042 150.726 39.3253C149.294 37.736 148.578 35.467 148.578 32.508V4.64258H154.287Z" fill="white"/>
<path d="M174.571 14.7327V41.2388H169.433V4.64258H176.595L182.46 26.548V4.64258H187.547V41.2388H181.682L174.571 14.7327Z" fill="white"/>
<path d="M197.356 9.87061V36.0108H200.574C201.477 36.0108 202.183 35.7494 202.702 35.2266C203.221 34.7038 203.481 33.7836 203.481 32.4557V13.4257C203.481 12.0978 203.221 11.1776 202.702 10.6548C202.183 10.132 201.477 9.87061 200.574 9.87061H197.356ZM191.647 4.64258H200.678C203.554 4.64258 205.682 5.40587 207.083 6.94291C208.484 8.47995 209.18 10.728 209.18 13.6871V32.1943C209.18 35.1534 208.484 37.4014 207.083 38.9385C205.682 40.4755 203.543 41.2388 200.678 41.2388H191.647V4.64258Z" fill="white"/>
<path d="M218.533 9.87061V21.1109H220.765C221.834 21.1109 222.675 20.8286 223.277 20.2744C223.879 19.7202 224.18 18.706 224.18 17.2421V13.6348C224.18 12.3069 223.951 11.3554 223.484 10.7594C223.017 10.1634 222.28 9.87061 221.284 9.87061H218.533ZM224.761 41.2388C224.688 40.9983 224.626 40.7683 224.553 40.5592C224.481 40.35 224.429 40.0886 224.367 39.775C224.315 39.4613 224.284 39.0639 224.263 38.5725C224.242 38.0811 224.232 37.4746 224.232 36.7427V30.9919C224.232 29.2875 223.941 28.0851 223.349 27.3845C222.758 26.684 221.813 26.3389 220.495 26.3389H218.522V41.2388H212.813V4.64258H221.429C224.408 4.64258 226.557 5.34313 227.886 6.73379C229.214 8.12445 229.879 10.2366 229.879 13.0597V15.9351C229.879 19.6993 228.633 22.1774 226.142 23.3589C227.595 23.9549 228.592 24.9169 229.121 26.2553C229.661 27.5936 229.92 29.2248 229.92 31.1382V36.7845C229.92 37.6942 229.951 38.4784 230.024 39.158C230.097 39.8377 230.263 40.5278 230.543 41.2179H224.73L224.761 41.2388Z" fill="white"/>
<path d="M238.505 29.1098L231.301 4.64258H237.26L241.62 21.32L245.979 4.64258H251.429L244.215 29.1098V41.2388H238.505V29.1098Z" fill="white"/>
<path d="M266.221 4.64258H271.152L256.827 41.2388H251.896L266.221 4.64258Z" fill="white"/>
<path d="M277.744 0V6.33637C285.997 12.0663 294.249 17.7858 302.512 23.5157C294.249 29.2247 285.997 34.9442 277.744 40.6741V47C289.173 39.1475 300.571 31.3368 312 23.5157C300.571 15.6632 289.173 7.8525 277.744 0Z" fill="white"/>
<path d="M34.2561 47V40.6636C26.0035 34.9337 17.7509 29.2142 9.48789 23.4843C17.7509 17.7753 26.0035 12.0558 34.2561 6.32592V0C22.827 7.8525 11.4291 15.6632 0 23.4843C11.4291 31.3368 22.827 39.1475 34.2561 47Z" fill="white"/>
</g>
<defs>
<clipPath id="clip0_621_229">
<rect width="312" height="47" fill="white"/>
</clipPath>
</defs>
</svg>
