<svg width="12" height="17" viewBox="0 0 12 17" fill="none" xmlns="http://www.w3.org/2000/svg">
<path d="M9 5.84375C9 4.34732 7.73197 3 6 3C4.26803 3 3 4.34732 3 5.84375C3 6.46751 3.2063 7.33241 3.68164 8.40723C4.14495 9.45483 4.78784 10.5326 5.47363 11.5322C5.64948 11.7885 5.82637 12.0363 6 12.2734C6.17363 12.0363 6.35052 11.7885 6.52637 11.5322C7.21216 10.5326 7.85505 9.45483 8.31836 8.40723C8.7937 7.33241 9 6.46751 9 5.84375ZM12 5.84375C12 10.6649 6 17 6 17C5.99918 16.9991 0 10.6646 0 5.84375C0 2.61634 2.68629 9.41249e-08 6 0C9.31371 0 12 2.61634 12 5.84375Z" fill="#9747FF"/>
</svg>
